<?xml version="1.0" encoding="utf-8"?>
<!-- Generator: Adobe Illustrator 16.0.0, SVG Export Plug-In . SVG Version: 6.00 Build 0)  -->
<!DOCTYPE svg PUBLIC "-//W3C//DTD SVG 1.1//EN" "http://www.w3.org/Graphics/SVG/1.1/DTD/svg11.dtd">
<svg version="1.1" id="Layer_1" xmlns="http://www.w3.org/2000/svg" xmlns:xlink="http://www.w3.org/1999/xlink" x="0px" y="0px"
	 width="1000px" height="500px" viewBox="0 0 1000 500" enable-background="new 0 0 1000 500" xml:space="preserve">
<g id="_x2014_ÎÓÈ_x5F_9">
	<g id="man_2_">
		<path fill="#DEDDDD" d="M541.44,238.486c2.545-26.812,3.39-39.538-2.141-50.512c0-0.002,0-0.005,0-0.007
			c0.082-11.419,0.082-31.238-3.299-41.771c-3.107-9.681-3.826-13.693-3.755-20.97c0.094-9.543-1.685-14.126-2.675-17.248
			c-3.679-11.579-16.979-13.527-24.202-13.82c0,0,0,0.001,0,0.002c-0.021-0.007-0.04-0.014-0.062-0.021l0,0
			c-0.02-0.007-0.041-0.014-0.061-0.021c-0.005-0.002-0.01-0.004-0.016-0.005c-0.832-0.284-1.707-0.577-2.661-0.886
			c-1.122-0.363-2.281-0.689-3.446-1.001c-0.002,0-0.004-0.001-0.006-0.002c-0.079-0.021-0.158-0.042-0.237-0.063
			c-0.785-0.209-1.571-0.413-2.354-0.615c-0.033-0.008-0.066-0.018-0.102-0.026c-0.333-0.086-0.664-0.173-0.995-0.259
			c-4.905-1.286-9.431-2.667-11.457-5.668c-2.758-4.086-2.983-5.75-3.21-10.996c0.631-0.931,1.101-1.992,1.472-3.355
			c0.26-0.953,0.498-1.925,0.725-2.905c0.306-0.343,0.601-0.694,0.877-1.057c1.756-2.302,2.967-4.977,3.831-7.716
			c0.739-2.337-0.135-3.337,0.938-5.551c0.799-1.646,1.225-3.478,0.974-5.219c-0.255-1.757,0.604-3.145,0.753-4.763
			c0.15-1.64-0.572-3.203-0.839-4.776c-0.282-1.673,0.164-3.16-0.367-4.789c-0.401-1.232-1.628-2.203-2.264-3.259
			c-0.794-1.319-1.051-2.392-1.942-3.663c-0.985-1.4-2.259-1.632-3.597-2.448c-1.861-1.137-2.628-2.314-4.703-2.798
			c-3.559-0.831-6.803-1.501-10.549-1.403c-3.745-0.098-6.991,0.573-10.548,1.403c-2.075,0.484-2.843,1.661-4.703,2.798
			c-1.338,0.816-2.611,1.048-3.597,2.448c-0.894,1.271-1.147,2.344-1.942,3.663c-0.637,1.056-1.861,2.026-2.265,3.259
			c-0.53,1.629-0.085,3.115-0.366,4.789c-0.268,1.573-0.989,3.136-0.839,4.776c0.148,1.618,1.007,3.006,0.752,4.763
			c-0.25,1.741,0.176,3.572,0.974,5.219c1.072,2.214,0.199,3.214,0.938,5.551c0.865,2.74,2.074,5.414,3.83,7.716
			c0.277,0.363,0.572,0.714,0.878,1.058c0.228,0.979,0.464,1.951,0.725,2.904c0.372,1.364,0.841,2.424,1.472,3.355
			c-0.225,5.245-0.453,6.909-3.21,10.996c-2.026,3.001-6.548,4.382-11.454,5.667c-0.332,0.087-0.665,0.174-0.999,0.26
			c-0.029,0.007-0.059,0.015-0.088,0.023c-0.803,0.208-1.609,0.417-2.416,0.631c-0.062,0.017-0.125,0.034-0.188,0.05
			c-0.001,0-0.003,0.001-0.004,0.001c-1.166,0.312-2.324,0.639-3.447,1.002c-0.962,0.312-1.846,0.607-2.684,0.893
			c-0.018,0.006-0.037,0.012-0.054,0.019l0,0c-0.021,0.007-0.041,0.014-0.062,0.021c0,0,0-0.001,0-0.002
			c-7.225,0.293-20.523,2.241-24.201,13.82c-0.991,3.122-2.77,7.704-2.676,17.248c0.071,7.276-0.646,11.289-3.755,20.97
			c-3.381,10.533-3.381,30.352-3.299,41.771c0,0.002,0,0.004,0,0.007c-5.53,10.973-4.685,23.699-2.14,50.512
			c0.255,2.683-0.089,5.252,0.165,7.434c-2.146,6.311-0.772,13.234,1.463,19.018c5.406,13.981,15.762,20.182,17.908,18.061
			c2.146-2.123-1.054-4.812-3.475-9.73c-3.83-7.781-2.644-11.033-2.949-14.377c1.679,2.562,2.695,1.424,5.479,8.887
			c1.146,3.095,3.824,2.193,3.781,1.914c-0.388-2.897-1.137-6.071-1.809-9.354c-2.437-11.913-6.192-11.506-7.771-15.324
			c-0.06-1.017-0.044-2.274,0.231-3.975c2.01-12.401,8.362-28.078,8.849-47.263c0.031-1.277,0.136-3.615-0.07-6.169
			c3.667-9.189,7.492-25.812,9.989-40.433c0,0.001,0,0.001,0.001,0.002l0,0l0,0c0.168,0.721,0.348,1.449,0.539,2.175
			c0.001,0.004,0.002,0.008,0.003,0.012v0.001c0.179,0.682,0.37,1.362,0.569,2.034c0.002,0.005,0.004,0.01,0.005,0.015
			c0.014,0.045,0.026,0.09,0.04,0.134c0.002,0.007,0.004,0.013,0.006,0.02c0.201,0.665,0.412,1.32,0.636,1.96
			c0.001,0.002,0.001,0.004,0.002,0.007c0.012,0.033,0.024,0.067,0.036,0.101c0,0.001,0,0.001,0,0.002
			c0.232,0.662,0.478,1.308,0.737,1.927c6.05,14.462,3.755,32.767,3.964,41.678c0.18,7.677-1.065,7.778-2.37,11.973
			c-0.525,1.69-0.989,3.23-1.402,4.724c-0.003,0.012-0.007,0.025-0.011,0.038c-0.008,0.029-0.016,0.058-0.023,0.086
			c-0.003,0.012-0.006,0.023-0.01,0.035c-0.125,0.457-0.247,0.911-0.363,1.363c-0.001,0.005-0.003,0.011-0.004,0.016l-0.022,0.091
			c-0.003,0.011-0.005,0.022-0.008,0.034c-0.124,0.485-0.243,0.969-0.357,1.456c-0.001,0.004-0.002,0.008-0.003,0.012
			c0,0.001-0.001,0.003-0.001,0.004c-0.106,0.453-0.208,0.909-0.308,1.37c-0.002,0.012-0.005,0.024-0.008,0.036
			c-0.007,0.035-0.015,0.07-0.021,0.105c-0.001,0.005-0.002,0.01-0.003,0.015c-0.099,0.465-0.192,0.937-0.283,1.417
			c-0.002,0.01-0.004,0.02-0.006,0.031c-0.056,0.249-0.129,0.59-0.214,0.975c-0.015,0.066-0.027,0.125-0.042,0.193
			c-0.001,0.005-0.002,0.011-0.003,0.016c-0.026,0.118-0.053,0.24-0.08,0.369c-0.002,0.012-0.005,0.022-0.007,0.034
			c-0.026,0.121-0.055,0.25-0.082,0.38c-0.003,0.007-0.003,0.016-0.006,0.023c-0.051,0.236-0.104,0.489-0.16,0.756
			c-0.003,0.012-0.005,0.021-0.008,0.033c-0.021,0.101-0.042,0.201-0.063,0.306c0,0,0,0,0,0.001
			c-0.046,0.219-0.093,0.446-0.144,0.684c-0.001,0.005-0.002,0.01-0.003,0.016c-0.004,0.021-0.009,0.044-0.014,0.065
			c-0.097,0.471-0.2,0.979-0.309,1.52c-0.003,0.017-0.007,0.032-0.011,0.049c-0.001,0.004-0.001,0.009-0.002,0.013
			c0,0.002-0.001,0.003-0.001,0.005c-1.361,6.814-3.513,19.017-4.962,34.926c0,0.001,0,0.002,0,0.004l0,0
			c-1.286,14.112-2.018,31.125-1.143,49.881c0.474,10.158,5.177,29.01,3.369,36.7c-1.803,7.688-4.626,15.88-5.974,28.144
			c-2.037,18.525,5.912,33.691,2.347,64.848c-0.198,1.729-3.536,8.933-3.703,12.153c-0.215,4.15-1.483,7.446-4.611,13.853
			c-2.318,4.747,11.511,6.19,15.06,6.891c0,0,13.28,4.794,11.065-2.583c-1.345-4.479-1.08-9.165-1.569-16.393
			c-0.456-6.742-1.388-9.356-1.165-12.684c0.944-14.198,9.292-36.888,12.8-57.822c2.726-16.272,0.557-24.242,1.061-32.948
			c0.415-7.158,3.855-11.884,4.86-24.018c0.294-3.556,0.081-7.42,1.166-11.143c4.82-16.528,11.645-42.528,14.417-57.587
			c0.124,0.007,0.245,0.023,0.369,0.021c0.125,0.002,0.245-0.016,0.369-0.021c2.771,15.059,9.597,41.059,14.416,57.587
			c1.085,3.723,0.872,7.587,1.166,11.143c1.005,12.134,4.445,16.858,4.86,24.018c0.504,8.706-1.665,16.676,1.061,32.948
			c3.508,20.936,11.855,43.624,12.8,57.822c0.225,3.326-0.709,5.94-1.164,12.684c-0.488,7.228-0.225,11.912-1.569,16.393
			c-2.214,7.377,11.066,2.583,11.066,2.583c3.549-0.699,17.378-2.144,15.06-6.891c-3.128-6.405-4.396-9.701-4.611-13.853
			c-0.167-3.222-3.505-10.425-3.703-12.153c-3.564-31.155,4.385-46.321,2.348-64.848c-1.348-12.264-4.171-20.454-5.974-28.144
			c-1.809-7.69,2.896-26.542,3.369-36.7c2.246-48.163-6.086-84.921-7.252-90.248c-0.001-0.008-0.003-0.016-0.005-0.024
			c-0.091-0.482-0.186-0.957-0.284-1.424c-0.001-0.004-0.002-0.009-0.003-0.014c-0.008-0.035-0.016-0.071-0.021-0.105
			c-0.003-0.013-0.006-0.026-0.01-0.039c-0.098-0.46-0.199-0.916-0.306-1.369c0-0.001-0.001-0.001-0.001-0.002
			c0-0.002-0.001-0.005-0.001-0.007c-0.114-0.488-0.234-0.973-0.358-1.458c-0.003-0.012-0.006-0.024-0.009-0.036l-0.022-0.091
			c-0.001-0.004-0.002-0.009-0.004-0.014c-0.116-0.454-0.238-0.909-0.364-1.368c-0.003-0.011-0.006-0.021-0.009-0.032
			c-0.009-0.029-0.017-0.058-0.023-0.086c-0.004-0.016-0.009-0.032-0.014-0.048c-0.412-1.49-0.875-3.026-1.399-4.713
			c-1.305-4.195-2.55-4.296-2.37-11.973c0.209-8.912-2.086-27.216,3.964-41.678c0.261-0.619,0.505-1.265,0.736-1.927
			c0.001,0,0.001-0.001,0.001-0.002c0.012-0.034,0.024-0.067,0.036-0.101c0.002-0.003,0.003-0.007,0.004-0.011
			c0.223-0.638,0.435-1.292,0.634-1.954c0.002-0.008,0.005-0.015,0.007-0.022c0.014-0.044,0.026-0.089,0.04-0.134
			c0.002-0.005,0.004-0.01,0.006-0.015c0.199-0.672,0.391-1.352,0.569-2.034v-0.001c0.002-0.006,0.003-0.011,0.005-0.017
			c0.19-0.725,0.369-1.451,0.537-2.171l0,0l0,0c0,0,0.001-0.001,0.001-0.002c2.496,14.621,6.321,31.244,9.989,40.433
			c-0.206,2.554-0.104,4.893-0.07,6.169c0.485,19.185,6.839,34.861,8.849,47.263c0.274,1.701,0.291,2.958,0.23,3.975
			c-1.577,3.818-5.334,3.412-7.771,15.324c-0.672,3.283-1.421,6.457-1.809,9.355c-0.043,0.279,2.635,1.18,3.781-1.914
			c2.782-7.463,3.8-6.326,5.479-8.887c-0.307,3.344,0.881,6.596-2.949,14.377c-2.421,4.918-5.619,7.606-3.475,9.729
			c2.146,2.121,12.503-4.078,17.908-18.062c2.235-5.782,3.608-12.707,1.463-19.017C541.529,243.738,541.186,241.169,541.44,238.486z
			"/>
		<g>
			<g>
				<g>
					<path fill="#384353" d="M508.883,149.818h-85.329c-0.553,0-1-0.448-1-1c0-0.552,0.447-1,1-1h85.329c0.553,0,1,0.448,1,1
						C509.883,149.37,509.436,149.818,508.883,149.818z"/>
				</g>
				<g>
					<path fill="#384353" d="M502.554,204.818h-72.965c-0.553,0-1-0.448-1-1c0-0.552,0.447-1,1-1h72.965c0.554,0,1,0.448,1,1
						C503.554,204.37,503.106,204.818,502.554,204.818z"/>
				</g>
				<g>
					<path fill="#384353" d="M508.877,242.442h-86.623c-0.552,0-1-0.448-1-1c0-0.552,0.448-1,1-1h86.623c0.553,0,1,0.448,1,1
						C509.877,241.994,509.43,242.442,508.877,242.442z"/>
				</g>
			</g>
		</g>
	</g>
	<g id="child">
		<path fill="#DEDDDD" d="M829.569,307.641c1.758-18.867,2.343-27.822-1.48-35.545c0-0.002,0.001-0.004,0.001-0.006
			c0.057-8.035-3.403-32.04-5.416-41.553c-1.474-6.963-1.715-11.913-2.923-15.147c-2.845-7.618-8.875-8.408-14.562-9.233
			c-0.666-0.233-1.385-0.479-2.166-0.736c-4.905-1.616-10.776-2.24-12.854-5.374c-1.599-2.411-1.967-3.622-2.135-6.125
			c1.914-1.447,3.601-3.148,4.509-5.038c0.338-0.705,0.625-1.421,0.874-2.149c0.387-0.393,0.76-0.798,1.103-1.223
			c1.653-2.057,2.795-4.446,3.607-6.894c0.696-2.087-0.127-2.98,0.883-4.958c0.751-1.471,1.151-3.107,0.916-4.663
			c-0.24-1.569,0.567-2.81,0.708-4.255c0.143-1.464-0.538-2.861-0.789-4.267c-0.266-1.495,0.154-2.822-0.346-4.277
			c-0.378-1.102-1.533-1.969-2.132-2.912c-0.747-1.179-0.988-2.137-1.829-3.272c-0.928-1.25-2.126-1.458-3.386-2.187
			c-1.753-1.016-2.476-2.068-4.43-2.5c-3.35-0.742-6.403-1.341-9.932-1.253c-3.526-0.088-6.583,0.512-9.933,1.253
			c-1.954,0.432-2.677,1.484-4.43,2.5c-1.259,0.729-2.458,0.937-3.385,2.187c-0.842,1.135-1.082,2.094-1.83,3.272
			c-0.598,0.942-1.752,1.81-2.131,2.912c-0.5,1.455-0.08,2.782-0.346,4.277c-0.251,1.406-0.933,2.802-0.789,4.267
			c0.14,1.445,0.946,2.686,0.708,4.255c-0.235,1.555,0.165,3.191,0.916,4.663c1.009,1.978,0.188,2.871,0.882,4.958
			c0.814,2.448,1.953,4.837,3.606,6.894c0.343,0.426,0.717,0.832,1.104,1.225c0.248,0.727,0.535,1.443,0.873,2.147
			c0.907,1.89,2.594,3.59,4.509,5.038c-0.169,2.503-0.537,3.714-2.135,6.125c-1.408,2.123-4.56,3.094-7.969,4.002
			c-0.001-0.003-0.002-0.008-0.004-0.011c-0.103,0.027-0.205,0.055-0.31,0.083c-0.9,0.238-1.813,0.474-2.719,0.727
			c-0.444,0.124-0.883,0.255-1.318,0.39c-0.192,0.06-0.389,0.119-0.58,0.183c-0.108,0.036-0.209,0.07-0.315,0.105
			c-0.244,0.081-0.488,0.162-0.722,0.241c-0.307,0.104-0.604,0.207-0.891,0.307c0,0.004,0,0.01,0.001,0.015
			c-0.062,0.022-0.133,0.046-0.195,0.068c-5.688,0.826-11.718,1.616-14.562,9.233c-1.208,3.234-1.449,8.184-2.923,15.147
			c-2.014,9.514-5.473,33.518-5.416,41.553c0,0.002,0,0.004,0,0.006c-3.823,7.723-3.238,16.678-1.479,35.545
			c0.177,1.89-0.061,3.697,0.116,5.232c-1.484,4.441-0.536,9.313,1.011,13.383c3.737,9.84,10.896,14.201,12.378,12.711
			c1.484-1.496-0.726-3.387-2.399-6.85c-2.647-5.476-1.826-7.765-2.038-10.115c1.159,1.801,1.862,1,3.786,6.254
			c0.794,2.176,2.645,1.543,2.613,1.346c-0.268-2.039-0.786-4.271-1.25-6.584c-1.687-8.396-4.284-8.103-5.373-10.802
			c-0.038-0.713-0.026-1.592,0.161-2.778c1.391-8.729,5.781-19.76,6.116-33.262c0.022-0.904,0.096-2.566-0.051-4.38
			c2.952-7.914,4.622-22.055,6.498-31.964c0.047,0.623,0.096,1.245,0.146,1.868c-0.001,0.157,0.006,0.31,0.001,0.47
			c0.364,4.163,0.786,8.302,1.207,12.252c0.121,1.143,0.242,2.27,0.363,3.373c0.995,9.175,1.884,16.939,1.844,20.822
			c-0.024,2.486,0.265,5.473-0.639,8.426c-0.933,3.049-1.58,5.416-2.077,8.312c-0.026,0.041-0.06,0.078-0.085,0.119
			c-2.5,10.25-4.077,41.17-2.242,63.445c0.588,7.131,3.478,19.935,2.492,25.407c-0.982,5.47-2.651,11.328-3.162,19.994
			c-0.771,13.094,5.553,24.493,4.156,46.518c-0.078,1.222-2.641,5.875-3.091,8.099c-0.812,4.003-3.417,6.111-4.057,8.454
			c-0.979,3.585,8.135,5.388,10.609,5.744c2.038,0.299,7.084,2.476,7.553-2.219c0.167-1.635-1.271-6.094-1.352-10.712
			c-0.081-4.755-0.201-7.282-0.159-9.627c0.165-10.014,5.786-26.718,7.491-41.56c1.326-11.532-0.446-17.055-0.396-23.191
			c0.042-5.046,2.255-8.491,2.534-17.054c0.081-2.512-0.198-5.219,0.423-7.873c2.512-10.717,6.143-25.094,8.045-36.008
			c0.063-0.364,0.126-0.727,0.187-1.083c0.044-0.261,0.087-0.521,0.129-0.775c0.099-0.613,0.192-1.217,0.278-1.801
			c0.003-0.018,0.006-0.033,0.009-0.051c0.088,0.607,0.187,1.235,0.29,1.874c0.038,0.238,0.078,0.479,0.119,0.723
			c0.063,0.381,0.131,0.768,0.198,1.157c0.141,0.801,0.288,1.616,0.444,2.45c0.007,0.035,0.013,0.068,0.02,0.104l0,0
			c1.987,10.523,5.256,23.525,7.573,33.41c0.621,2.654,0.343,5.361,0.424,7.873c0.278,8.562,2.491,12.008,2.533,17.054
			c0.052,6.138-1.72,11.659-0.395,23.191c1.705,14.842,7.325,31.546,7.491,41.56c0.041,2.345-0.079,4.872-0.159,9.627
			c-0.081,4.618-1.52,9.077-1.353,10.712c0.469,4.693,5.517,2.518,7.553,2.219c2.476-0.356,11.589-2.159,10.61-5.744
			c-0.64-2.343-3.245-4.451-4.057-8.454c-0.451-2.224-3.014-6.877-3.092-8.099c-1.396-22.022,4.93-33.424,4.156-46.518
			c-0.51-8.666-2.18-14.524-3.162-19.994c-0.983-5.474,1.904-18.276,2.492-25.407c1.835-22.275,0.259-53.195-2.241-63.445
			c-0.042-0.065-0.094-0.127-0.138-0.193c-0.495-2.866-1.145-5.211-2.069-8.237c-0.901-2.953-0.612-5.938-0.639-8.426
			c-0.063-6.272,2.396-22.646,3.605-38.785c1.876,9.909,3.546,24.05,6.497,31.964c-0.146,1.812-0.072,3.475-0.05,4.38
			c0.335,13.502,4.728,24.533,6.116,33.262c0.188,1.188,0.2,2.065,0.16,2.778c-1.088,2.699-3.688,2.406-5.372,10.802
			c-0.464,2.312-0.982,4.546-1.25,6.584c-0.03,0.197,1.82,0.83,2.614-1.346c1.923-5.254,2.627-4.453,3.786-6.254
			c-0.212,2.352,0.608,4.641-2.038,10.115c-1.676,3.463-3.886,5.354-2.4,6.85c1.482,1.49,8.641-2.871,12.378-12.711
			c1.547-4.067,2.495-8.94,1.011-13.383C829.63,311.338,829.393,309.529,829.569,307.641z"/>
		<g>
			<g>
				<g>
					<g>
						<path fill="#384353" d="M716.126,474.441c-0.256,0-0.512-0.099-0.707-0.293l-6.875-6.875c-0.391-0.392-0.391-1.023,0-1.414
							c0.392-0.392,1.023-0.392,1.414,0l6.875,6.875c0.391,0.391,0.391,1.022,0,1.414
							C716.638,474.344,716.382,474.441,716.126,474.441z"/>
					</g>
					<g>
						<path fill="#384353" d="M716.126,474.441c-0.256,0-0.512-0.099-0.707-0.293c-0.391-0.392-0.391-1.023,0-1.414l6.875-6.875
							c0.392-0.392,1.023-0.392,1.414,0c0.391,0.391,0.391,1.022,0,1.414l-6.875,6.875
							C716.638,474.344,716.382,474.441,716.126,474.441z"/>
					</g>
				</g>
				<g>
					<g>
						<path fill="#384353" d="M709.251,152.65c-0.256,0-0.512-0.098-0.707-0.293c-0.391-0.391-0.391-1.023,0-1.414l6.875-6.875
							c0.392-0.391,1.023-0.391,1.414,0s0.391,1.023,0,1.414l-6.875,6.875C709.763,152.553,709.507,152.65,709.251,152.65z"/>
					</g>
					<g>
						<path fill="#384353" d="M723.001,152.65c-0.256,0-0.512-0.098-0.707-0.293l-6.875-6.875c-0.391-0.391-0.391-1.023,0-1.414
							c0.392-0.391,1.023-0.391,1.414,0l6.875,6.875c0.391,0.391,0.391,1.023,0,1.414
							C723.513,152.553,723.257,152.65,723.001,152.65z"/>
					</g>
				</g>
				<g>
					<path fill="#384353" d="M716.126,474.441c-0.552,0-1-0.447-1-1V145.775c0-0.553,0.448-1,1-1s1,0.447,1,1v327.667
						C717.126,473.994,716.678,474.441,716.126,474.441z"/>
				</g>
			</g>
			<g>
				<g>
					<path fill="#384353" d="M807.104,241.5H748.4c-0.568,0-1.028-0.448-1.028-1s0.46-1,1.028-1h58.701c0.568,0,1.028,0.448,1.028,1
						S807.671,241.5,807.104,241.5z"/>
				</g>
				<g>
					<path fill="#384353" d="M803.124,284.503H752.13c-0.567,0-1.028-0.448-1.028-1c0-0.553,0.461-1,1.028-1h50.994
						c0.568,0,1.027,0.447,1.027,1C804.151,284.055,803.692,284.503,803.124,284.503z"/>
				</g>
				<g>
					<path fill="#384353" d="M807.64,311.366h-60.031c-0.567,0-1.028-0.448-1.028-1c0-0.554,0.461-1,1.028-1h60.031
						c0.568,0,1.028,0.446,1.028,1C808.668,310.918,808.208,311.366,807.64,311.366z"/>
				</g>
			</g>
		</g>
	</g>
</g>
<g id="_x2014_ÎÓÈ_x5F_3">
</g>
<g id="Layer_6">
	<g>
		<g id="woman_1_">
			<path fill="#DEDDDD" d="M194.6,202.799c-1.213-13.128-2.539-26.742-2.128-40.803c0.39-13.473-3.098-23.01-4.123-25.876
				c-2.061-5.772-5.523-8.737-8.914-9.149c-3.465-0.791-9.034-1.447-14.303-2.812c3.035-1.827,5.328-4.653,6.961-7.745
				c-4.77,1.641-7.176-4.49-7.881-8.089c-1.395-7.128,1.687-15.204,2.008-22.989c0.266-6.428-0.589-11.413-1.933-15.256
				c-1.38-4.625-3.688-8.293-7.251-10.858c-3.699-2.996-8.77-4.634-15.775-4.438c-7.003-0.196-12.074,1.442-15.773,4.438
				c-2.319,1.669-4.073,4.123-5.402,6.877c-2.265,4.162-4.053,10.31-3.685,19.237c0.322,7.785,3.403,15.86,2.008,22.989
				c-0.706,3.599-3.112,9.729-7.881,8.089c1.633,3.091,3.925,5.917,6.96,7.744c-5.269,1.365-10.838,2.021-14.304,2.812
				c-3.391,0.412-6.854,3.377-8.916,9.149c-1.023,2.866-4.512,12.403-4.121,25.876c0.41,14.063-0.915,27.681-2.128,40.811
				c-3.321,10.526-4.486,20.047-3.779,49.129c0.062,2.52-0.08,4.912,0.146,6.953c0.006,0.061,0.026,0.105,0.034,0.164
				c-0.011,0.213-0.013,0.432-0.002,0.658c0.937,6.482,0.08,10.706,1.639,15.182c4.105,11.81,12.075,18.416,13.558,16.613
				c1.484-1.804-0.921-4.295-2.836-8.732c-3.03-7.022-2.281-9.858-2.613-12.826c1.302,2.324,1.997,1.354,4.259,8.057
				c0.934,2.777,2.839,2.075,2.801,1.824c-0.377-2.577-1.026-5.411-1.618-8.342c-1.973-9.7-4.397-10.358-5.771-13.01
				c-0.08-1.019-0.048-2.31,0.179-4.156c2.59-21.179,7.283-30.938,8.055-47.489c0.132-0.466,0.247-0.961,0.32-1.523
				c1.088-8.344,3.629-28.967,5.881-43.338c0.223,3.364,1.824,6.013,3.854,8.638c0.886,1.408,1.668,2.561,1.668,2.561
				c1.29,11.108,2.138,24.783,1.29,32.597c-0.863,7.975-6.797,15.254-9.682,30.148c-0.1,0.504-0.19,1.032-0.283,1.554
				c-0.021,0.12-0.042,0.238-0.062,0.359c-0.251,1.452-0.484,2.949-0.669,4.549l0,0c0,0.003-0.001,0.007-0.001,0.011
				c0.012,0.005,0.024,0.011,0.037,0.017c-0.002,0.021-0.004,0.042-0.007,0.062c-0.988,3.242-1.227,6.706-1.484,9.312
				c-3.022,30.414,4.539,59.34,4.541,70.825c0,9.509,0.4,16.3-1.059,23.538c-1.456,7.239-3.091,15.498-4.058,26.999
				c-1.46,17.37,3.177,55.71,1.483,70.836c-0.182,1.617-0.949,7.988-1.608,10.932c-1.187,5.296-2.128,8.892-3.031,11.983
				c-1.381,4.732,4.237,6.17,7.396,6.72c2.602,0.448,9.562,3.14,10.333-3.084c0.271-2.169-1.977-7.785-1.915-13.925
				c0.068-6.316-0.256-12.449-0.119-15.562c0.575-13.297,8.157-40.316,10.876-59.985c2.114-15.287,0.226-24.532,0.51-32.685
				c0.234-6.7,3.199-11.218,3.862-22.586c1.188-20.387,10.512-61.363,10.685-61.35c0.149,0.012,10.48,40.963,11.668,61.35
				c0.664,11.368,3.629,15.886,3.863,22.586c0.284,8.151-1.604,17.396,0.51,32.685c2.718,19.669,10.301,46.688,10.876,59.985
				c0.136,3.113-0.187,9.246-0.12,15.562c0.062,6.14-2.186,11.756-1.915,13.925c0.771,6.224,7.731,3.532,10.333,3.084
				c3.159-0.55,8.777-1.986,7.396-6.72c-0.903-3.093-1.844-6.688-3.031-11.983c-0.659-2.942-1.425-9.313-1.607-10.932
				c-1.694-15.126,2.943-53.466,1.482-70.836c-0.967-11.501-2.602-19.76-4.057-26.999c-1.459-7.238-1.059-14.029-1.059-23.538
				c0.002-11.485,7.562-40.411,4.541-70.825c-0.26-2.624-0.5-6.115-1.505-9.375c0.011-0.005,0.021-0.01,0.032-0.014
				c0-0.004-0.001-0.008-0.002-0.011c0.001,0,0.001,0,0.001,0c-0.272-2.347-0.627-4.516-1.034-6.552
				c-2.892-14.834-8.804-22.099-9.666-30.058c-0.845-7.813,0-21.489,1.291-32.597c0,0,0.775-1.143,1.656-2.542
				c2.036-2.628,3.642-5.28,3.868-8.648c2.251,14.371,4.791,34.987,5.879,43.329c0.073,0.562,0.188,1.057,0.32,1.522
				c0.771,16.552,5.463,26.311,8.056,47.491c0.226,1.847,0.258,3.138,0.179,4.156c-1.374,2.649-3.797,3.309-5.769,13.008
				c-0.595,2.932-1.243,5.766-1.619,8.343c-0.041,0.251,1.866,0.953,2.8-1.824c2.262-6.703,2.959-5.731,4.259-8.058
				c-0.332,2.969,0.417,5.805-2.613,12.826c-1.916,4.438-4.319,6.931-2.838,8.733c1.482,1.802,9.453-4.805,13.56-16.612
				c1.559-4.477,0.702-8.699,1.639-15.183c0.01-0.228,0.008-0.444-0.002-0.658c0.008-0.059,0.028-0.104,0.034-0.163
				c0.226-2.043,0.086-4.436,0.146-6.955C199.086,222.847,197.922,213.329,194.6,202.799z"/>
			<g>
				<path fill="#384353" d="M172.562,164.818h-61.956c-0.552,0-1-0.448-1-1c0-0.552,0.448-1,1-1h61.956c0.552,0,1,0.448,1,1
					C173.562,164.37,173.114,164.818,172.562,164.818z"/>
			</g>
			<g>
				<path fill="#384353" d="M166.262,206.818h-50.076c-0.552,0-1-0.448-1-1c0-0.552,0.448-1,1-1h50.076c0.552,0,1,0.448,1,1
					C167.262,206.37,166.814,206.818,166.262,206.818z"/>
			</g>
			<g>
				<path fill="#384353" d="M178.387,247.442h-74c-0.552,0-1-0.448-1-1c0-0.552,0.448-1,1-1h74c0.552,0,1,0.448,1,1
					C179.387,246.994,178.939,247.442,178.387,247.442z"/>
			</g>
		</g>
	</g>
</g>
<g>
	<path fill="#384353" d="M563.313,198.941c0.569,0,1.071,0.086,1.505,0.259c0.435,0.171,0.803,0.382,1.106,0.63
		c0.303,0.249,0.534,0.516,0.692,0.801c0.159,0.285,0.243,0.541,0.252,0.767c0.01,0.081-0.019,0.151-0.084,0.21
		c-0.065,0.06-0.14,0.089-0.224,0.089h-0.574c-0.103,0-0.185-0.018-0.245-0.055c-0.061-0.036-0.123-0.118-0.188-0.244
		c-0.047-0.09-0.124-0.206-0.231-0.346s-0.252-0.277-0.434-0.407c-0.182-0.132-0.404-0.245-0.665-0.34
		c-0.262-0.095-0.564-0.142-0.91-0.142c-0.262,0-0.511,0.029-0.749,0.088s-0.45,0.147-0.637,0.264
		c-0.187,0.119-0.336,0.265-0.448,0.441c-0.112,0.177-0.168,0.382-0.168,0.618c0,0.235,0.054,0.434,0.161,0.597
		c0.107,0.163,0.28,0.311,0.518,0.441c0.238,0.131,0.539,0.251,0.903,0.36c0.364,0.109,0.808,0.231,1.33,0.366
		c0.532,0.136,0.982,0.285,1.351,0.448c0.369,0.163,0.67,0.347,0.903,0.55s0.403,0.439,0.511,0.706
		c0.107,0.267,0.161,0.568,0.161,0.903c0,0.407-0.091,0.78-0.272,1.12c-0.183,0.339-0.437,0.631-0.764,0.875
		c-0.326,0.244-0.721,0.435-1.183,0.57c-0.462,0.137-0.978,0.204-1.547,0.204c-0.542,0-1.041-0.077-1.498-0.23
		c-0.458-0.154-0.85-0.353-1.176-0.598c-0.327-0.244-0.586-0.516-0.777-0.814c-0.191-0.299-0.292-0.593-0.301-0.883
		c0-0.082,0.03-0.151,0.091-0.21c0.061-0.059,0.133-0.089,0.217-0.089h0.574c0.093,0,0.175,0.019,0.245,0.055
		c0.069,0.036,0.133,0.117,0.188,0.244c0.057,0.127,0.143,0.264,0.26,0.414c0.116,0.149,0.272,0.29,0.469,0.421
		c0.196,0.13,0.434,0.241,0.714,0.332c0.28,0.09,0.611,0.136,0.994,0.136c0.326,0,0.637-0.036,0.931-0.109
		c0.294-0.072,0.553-0.176,0.777-0.312c0.224-0.137,0.401-0.299,0.532-0.489c0.13-0.19,0.195-0.403,0.195-0.638
		c0-0.236-0.074-0.437-0.224-0.604c-0.149-0.168-0.364-0.319-0.645-0.455c-0.279-0.136-0.623-0.261-1.028-0.374
		c-0.406-0.113-0.866-0.233-1.379-0.36c-0.467-0.118-0.863-0.26-1.19-0.427s-0.593-0.36-0.798-0.577
		c-0.205-0.218-0.353-0.457-0.441-0.72c-0.089-0.262-0.133-0.547-0.133-0.855c0-0.335,0.07-0.661,0.21-0.978
		c0.141-0.316,0.348-0.597,0.623-0.841s0.621-0.441,1.036-0.591C562.266,199.016,562.754,198.941,563.313,198.941z"/>
	<path fill="#384353" d="M570.706,206.204c0,0.172,0.016,0.333,0.049,0.482c0.032,0.15,0.091,0.279,0.175,0.388
		c0.084,0.108,0.203,0.192,0.357,0.251c0.154,0.059,0.352,0.088,0.595,0.088h0.742c0.103,0,0.191,0.036,0.266,0.109
		c0.075,0.072,0.112,0.158,0.112,0.257v0.435c0,0.099-0.037,0.186-0.112,0.257c-0.074,0.073-0.163,0.109-0.266,0.109h-0.882
		c-0.812,0-1.4-0.204-1.765-0.611c-0.363-0.407-0.546-0.995-0.546-1.765v-3.516h-1.036c-0.103,0-0.191-0.036-0.266-0.109
		c-0.075-0.072-0.112-0.158-0.112-0.258v-0.435c0-0.099,0.037-0.185,0.112-0.257c0.074-0.072,0.163-0.109,0.266-0.109h1.036v-2.212
		c0-0.101,0.037-0.186,0.112-0.259c0.074-0.072,0.163-0.109,0.266-0.109h0.519c0.103,0,0.191,0.037,0.266,0.109
		c0.075,0.073,0.112,0.158,0.112,0.259v2.212h1.778c0.103,0,0.19,0.037,0.266,0.109c0.074,0.073,0.112,0.158,0.112,0.257v0.435
		c0,0.1-0.038,0.186-0.112,0.258c-0.075,0.073-0.163,0.109-0.266,0.109h-1.778V206.204z"/>
	<path fill="#384353" d="M578.098,201.521c0.103,0,0.191,0.037,0.266,0.109c0.075,0.073,0.112,0.158,0.112,0.257v0.435
		c0,0.1-0.037,0.186-0.112,0.258c-0.074,0.073-0.163,0.109-0.266,0.109h-0.812c-1.073,0-1.609,0.521-1.609,1.562v3.964
		c0,0.099-0.038,0.186-0.112,0.257c-0.075,0.073-0.163,0.109-0.266,0.109h-0.519c-0.103,0-0.191-0.036-0.266-0.109
		c-0.075-0.072-0.112-0.158-0.112-0.257v-6.327c0-0.099,0.037-0.185,0.112-0.257c0.074-0.072,0.163-0.109,0.266-0.109h0.519
		c0.103,0,0.19,0.037,0.266,0.109c0.074,0.073,0.112,0.158,0.112,0.257v0.421c0.187-0.271,0.41-0.471,0.672-0.597
		c0.261-0.127,0.602-0.19,1.021-0.19H578.098z"/>
	<path fill="#384353" d="M579.624,201.887c0-0.099,0.037-0.185,0.111-0.257c0.075-0.072,0.163-0.109,0.267-0.109h0.518
		c0.103,0,0.191,0.037,0.266,0.109c0.075,0.073,0.112,0.158,0.112,0.257v3.584c0,0.697,0.161,1.218,0.483,1.562
		c0.321,0.344,0.791,0.515,1.406,0.515c0.589,0,1.051-0.171,1.387-0.515s0.504-0.864,0.504-1.562v-3.584
		c0-0.099,0.037-0.185,0.112-0.257c0.074-0.072,0.163-0.109,0.266-0.109h0.518c0.103,0,0.191,0.037,0.267,0.109
		c0.074,0.073,0.111,0.158,0.111,0.257v6.327c0,0.099-0.037,0.186-0.111,0.257c-0.075,0.073-0.164,0.109-0.267,0.109h-0.518
		c-0.103,0-0.191-0.036-0.266-0.109c-0.075-0.072-0.112-0.158-0.112-0.257v-0.421c-0.178,0.227-0.43,0.437-0.756,0.631
		c-0.327,0.195-0.775,0.292-1.345,0.292c-0.438,0-0.84-0.07-1.203-0.21c-0.364-0.14-0.678-0.339-0.938-0.598
		c-0.262-0.257-0.462-0.574-0.602-0.95c-0.141-0.376-0.21-0.803-0.21-1.283V201.887z"/>
	<path fill="#384353" d="M589.325,205.594v2.62c0,0.099-0.038,0.186-0.112,0.257c-0.075,0.073-0.163,0.109-0.266,0.109h-0.519
		c-0.103,0-0.191-0.036-0.266-0.109c-0.075-0.072-0.112-0.158-0.112-0.257v-8.905c0-0.101,0.037-0.186,0.112-0.259
		c0.074-0.072,0.163-0.109,0.266-0.109h0.519c0.103,0,0.19,0.037,0.266,0.109c0.074,0.073,0.112,0.158,0.112,0.259v4.493l2.729-2.05
		c0.057-0.045,0.129-0.095,0.218-0.149c0.088-0.054,0.197-0.082,0.328-0.082h0.7c0.094,0,0.173,0.032,0.238,0.096
		s0.098,0.14,0.098,0.23c0,0.045-0.007,0.089-0.021,0.13c-0.015,0.041-0.059,0.088-0.133,0.142l-3.374,2.552l3.724,3.326
		c0.056,0.054,0.093,0.1,0.112,0.136c0.019,0.036,0.027,0.077,0.027,0.122c0,0.091-0.032,0.167-0.098,0.231
		s-0.145,0.095-0.238,0.095h-0.658c-0.14,0-0.259-0.027-0.356-0.082c-0.098-0.054-0.171-0.104-0.217-0.149L589.325,205.594z"/>
</g>
<g>
	<path fill="#384353" d="M687.285,304.548c-0.074-0.028-0.151-0.079-0.23-0.154c-0.079-0.074-0.119-0.205-0.119-0.392v-0.519
		c0-0.084,0.03-0.156,0.091-0.217s0.133-0.091,0.217-0.091c0.047,0,0.094,0.009,0.141,0.027l8.792,3.024
		c0.168,0.056,0.303,0.146,0.405,0.272c0.104,0.127,0.154,0.283,0.154,0.47v0.56c0,0.187-0.051,0.341-0.154,0.462
		c-0.103,0.122-0.237,0.21-0.405,0.267l-8.792,3.038c-0.047,0.019-0.094,0.027-0.141,0.027c-0.084,0-0.156-0.03-0.217-0.091
		s-0.091-0.133-0.091-0.217v-0.519c0-0.187,0.04-0.316,0.119-0.392c0.079-0.074,0.156-0.126,0.23-0.154l8.05-2.702L687.285,304.548z
		"/>
	<path fill="#384353" d="M687.972,300.25c0.103,0,0.191,0.037,0.266,0.112c0.075,0.074,0.112,0.163,0.112,0.266v0.798
		c0,0.103-0.037,0.191-0.112,0.266c-0.074,0.075-0.163,0.112-0.266,0.112h-0.798c-0.104,0-0.191-0.037-0.267-0.112
		c-0.074-0.074-0.112-0.163-0.112-0.266v-0.798c0-0.103,0.038-0.191,0.112-0.266c0.075-0.075,0.163-0.112,0.267-0.112H687.972z
		 M696.357,300.39c0.103,0,0.191,0.038,0.266,0.112c0.075,0.075,0.112,0.163,0.112,0.266v0.519c0,0.103-0.037,0.191-0.112,0.266
		c-0.074,0.075-0.163,0.112-0.266,0.112h-6.524c-0.103,0-0.19-0.037-0.266-0.112c-0.074-0.074-0.112-0.163-0.112-0.266v-0.519
		c0-0.103,0.038-0.19,0.112-0.266c0.075-0.074,0.163-0.112,0.266-0.112H696.357z"/>
	<path fill="#384353" d="M694.72,294.146c-0.178,0-0.324,0.05-0.441,0.147c-0.116,0.098-0.217,0.245-0.301,0.44
		c-0.084,0.196-0.163,0.446-0.238,0.749c-0.074,0.304-0.154,0.656-0.238,1.058c-0.158,0.756-0.422,1.285-0.791,1.589
		c-0.368,0.304-0.8,0.455-1.295,0.455c-0.279,0-0.546-0.056-0.798-0.168s-0.476-0.28-0.672-0.504
		c-0.196-0.225-0.35-0.507-0.462-0.848c-0.112-0.34-0.168-0.739-0.168-1.196s0.052-0.856,0.154-1.197s0.233-0.628,0.392-0.861
		c0.159-0.233,0.329-0.41,0.511-0.531c0.183-0.122,0.357-0.188,0.525-0.196c0.103-0.01,0.191,0.025,0.266,0.104
		c0.075,0.08,0.112,0.171,0.112,0.273v0.462c0,0.056-0.012,0.124-0.035,0.203s-0.077,0.151-0.161,0.217
		c-0.158,0.121-0.291,0.301-0.398,0.539s-0.161,0.567-0.161,0.987c0,0.429,0.079,0.776,0.238,1.043
		c0.158,0.266,0.378,0.398,0.657,0.398c0.178,0,0.32-0.037,0.428-0.111c0.107-0.075,0.2-0.196,0.279-0.364
		c0.08-0.168,0.152-0.39,0.217-0.665c0.065-0.275,0.146-0.618,0.238-1.029c0.094-0.429,0.213-0.788,0.357-1.078
		c0.145-0.289,0.308-0.522,0.49-0.699c0.182-0.178,0.383-0.304,0.602-0.379c0.22-0.074,0.45-0.111,0.693-0.111
		c0.279,0,0.551,0.067,0.812,0.203c0.262,0.135,0.49,0.329,0.687,0.581c0.195,0.252,0.354,0.558,0.476,0.917
		s0.182,0.768,0.182,1.225s-0.056,0.863-0.168,1.218c-0.111,0.355-0.249,0.658-0.413,0.91c-0.163,0.252-0.34,0.446-0.531,0.581
		c-0.191,0.136-0.371,0.208-0.539,0.217c-0.103,0.01-0.191-0.023-0.267-0.098c-0.074-0.075-0.111-0.168-0.111-0.28v-0.504
		c0-0.056,0.007-0.121,0.021-0.196c0.014-0.074,0.068-0.145,0.161-0.21c0.205-0.148,0.364-0.354,0.476-0.615
		c0.112-0.262,0.168-0.603,0.168-1.022c0-0.205-0.022-0.408-0.069-0.609c-0.047-0.2-0.112-0.378-0.196-0.531
		c-0.084-0.154-0.185-0.278-0.301-0.371C694.987,294.192,694.859,294.146,694.72,294.146z"/>
	<path fill="#384353" d="M687.972,289.792c0.103,0,0.191,0.037,0.266,0.112c0.075,0.074,0.112,0.163,0.112,0.266v0.798
		c0,0.103-0.037,0.191-0.112,0.266c-0.074,0.075-0.163,0.112-0.266,0.112h-0.798c-0.104,0-0.191-0.037-0.267-0.112
		c-0.074-0.074-0.112-0.163-0.112-0.266v-0.798c0-0.103,0.038-0.191,0.112-0.266c0.075-0.075,0.163-0.112,0.267-0.112H687.972z
		 M696.357,289.932c0.103,0,0.191,0.038,0.266,0.112c0.075,0.075,0.112,0.163,0.112,0.266v0.519c0,0.103-0.037,0.191-0.112,0.266
		c-0.074,0.075-0.163,0.112-0.266,0.112h-6.524c-0.103,0-0.19-0.037-0.266-0.112c-0.074-0.074-0.112-0.163-0.112-0.266v-0.519
		c0-0.103,0.038-0.19,0.112-0.266c0.075-0.074,0.163-0.112,0.266-0.112H696.357z"/>
	<path fill="#384353" d="M696.357,281.364c0.103,0,0.191,0.037,0.266,0.111c0.075,0.075,0.112,0.164,0.112,0.267v0.518
		c0,0.103-0.037,0.191-0.112,0.266c-0.074,0.075-0.163,0.112-0.266,0.112h-3.696c-0.719,0-1.255,0.173-1.609,0.519
		c-0.355,0.345-0.532,0.825-0.532,1.441c0,0.588,0.177,1.062,0.532,1.421c0.354,0.359,0.891,0.539,1.609,0.539h3.696
		c0.103,0,0.191,0.038,0.266,0.112c0.075,0.075,0.112,0.163,0.112,0.266v0.519c0,0.103-0.037,0.191-0.112,0.266
		c-0.074,0.075-0.163,0.112-0.266,0.112h-6.524c-0.103,0-0.19-0.037-0.266-0.112c-0.074-0.074-0.112-0.163-0.112-0.266v-0.519
		c0-0.103,0.038-0.19,0.112-0.266c0.075-0.074,0.163-0.112,0.266-0.112h0.435c-0.233-0.177-0.45-0.44-0.651-0.791
		c-0.2-0.35-0.301-0.81-0.301-1.379c0-0.438,0.072-0.845,0.217-1.218s0.351-0.693,0.616-0.959s0.595-0.474,0.987-0.623
		c0.392-0.149,0.83-0.224,1.315-0.224H696.357z"/>
	<path fill="#384353" d="M694.901,279.852c-0.373,0-0.7-0.074-0.98-0.224c-0.279-0.149-0.518-0.354-0.714-0.616
		c-0.195-0.261-0.354-0.567-0.476-0.917s-0.215-0.721-0.28-1.113l-0.322-1.974h-0.182c-0.476,0-0.833,0.156-1.071,0.469
		c-0.237,0.313-0.356,0.702-0.356,1.169c0,0.411,0.074,0.722,0.224,0.932s0.327,0.39,0.532,0.539
		c0.075,0.056,0.126,0.116,0.154,0.182c0.027,0.065,0.042,0.154,0.042,0.266v0.42c0,0.104-0.037,0.194-0.112,0.273
		c-0.074,0.079-0.163,0.114-0.266,0.104c-0.206-0.019-0.416-0.1-0.631-0.244c-0.214-0.145-0.405-0.341-0.573-0.589
		c-0.168-0.247-0.306-0.531-0.413-0.854s-0.161-0.665-0.161-1.029c0-0.42,0.061-0.81,0.182-1.169
		c0.122-0.359,0.299-0.667,0.532-0.924s0.522-0.457,0.868-0.602s0.742-0.218,1.189-0.218h4.271c0.103,0,0.191,0.038,0.266,0.112
		c0.075,0.075,0.112,0.163,0.112,0.266v0.519c0,0.103-0.037,0.191-0.112,0.266c-0.074,0.075-0.163,0.112-0.266,0.112h-0.574
		c0.178,0.084,0.334,0.215,0.469,0.392c0.136,0.178,0.25,0.381,0.344,0.609c0.093,0.229,0.163,0.467,0.21,0.714
		c0.046,0.247,0.069,0.479,0.069,0.693c0,0.364-0.051,0.697-0.153,1.001c-0.103,0.303-0.24,0.56-0.413,0.77s-0.381,0.374-0.623,0.49
		C695.442,279.794,695.182,279.852,694.901,279.852z M695.671,277.275c0-0.336-0.051-0.644-0.153-0.924
		c-0.103-0.279-0.245-0.52-0.427-0.721c-0.183-0.2-0.399-0.354-0.651-0.462s-0.532-0.161-0.84-0.161h-0.351l0.267,1.652
		c0.093,0.588,0.242,1.055,0.447,1.399c0.206,0.346,0.472,0.519,0.799,0.519c0.103,0,0.205-0.023,0.308-0.07
		s0.201-0.121,0.294-0.224c0.094-0.103,0.168-0.236,0.224-0.399C695.644,277.722,695.671,277.519,695.671,277.275z"/>
</g>
<g>
	<path fill="#384353" d="M560.011,245.033c-0.104,0-0.192-0.036-0.267-0.109c-0.075-0.072-0.112-0.158-0.112-0.258v-8.769
		c0-0.1,0.037-0.186,0.112-0.259c0.074-0.072,0.163-0.108,0.266-0.108h3.752c0.598,0,1.092,0.088,1.484,0.264
		c0.392,0.177,0.704,0.394,0.938,0.651c0.233,0.259,0.399,0.537,0.497,0.835c0.098,0.299,0.147,0.566,0.147,0.801
		c0,0.298-0.047,0.562-0.139,0.787c-0.092,0.226-0.2,0.417-0.325,0.571c-0.124,0.154-0.249,0.276-0.373,0.367
		c-0.124,0.09-0.214,0.153-0.27,0.189c0.354,0.236,0.665,0.545,0.931,0.93c0.267,0.385,0.399,0.835,0.399,1.351
		c0,0.344-0.065,0.679-0.196,1.005s-0.325,0.619-0.582,0.881c-0.258,0.264-0.58,0.474-0.968,0.632
		c-0.389,0.158-0.835,0.238-1.34,0.238H560.011z M560.962,236.752v2.742h2.66c0.625,0,1.094-0.118,1.406-0.353
		c0.313-0.235,0.47-0.575,0.47-1.018c0-0.443-0.156-0.783-0.47-1.018c-0.312-0.236-0.781-0.353-1.406-0.353H560.962z
		 M560.962,240.716v3.095h2.864c0.309,0,0.583-0.041,0.821-0.122s0.438-0.195,0.597-0.34c0.159-0.144,0.278-0.307,0.358-0.489
		c0.079-0.181,0.119-0.375,0.119-0.583c0-0.199-0.037-0.394-0.112-0.584c-0.075-0.189-0.189-0.357-0.344-0.502
		s-0.352-0.26-0.59-0.347c-0.239-0.085-0.522-0.128-0.85-0.128H560.962z"/>
	<path fill="#384353" d="M571.798,237.838c0.504,0,0.952,0.075,1.344,0.224c0.392,0.149,0.728,0.356,1.008,0.618
		s0.502,0.582,0.665,0.957c0.163,0.376,0.264,0.786,0.301,1.229c0.01,0.082,0.015,0.179,0.015,0.292c0,0.114,0,0.231,0,0.354
		c0,0.122,0,0.239,0,0.353c0,0.113-0.005,0.206-0.015,0.277c-0.047,0.453-0.149,0.865-0.308,1.236
		c-0.159,0.371-0.378,0.688-0.658,0.951c-0.28,0.262-0.616,0.468-1.008,0.617c-0.392,0.15-0.84,0.224-1.344,0.224
		s-0.952-0.074-1.344-0.224c-0.393-0.149-0.729-0.355-1.009-0.617c-0.279-0.263-0.502-0.58-0.665-0.951s-0.264-0.783-0.301-1.236
		c-0.009-0.072-0.017-0.165-0.021-0.277c-0.005-0.114-0.008-0.231-0.008-0.353c0-0.123,0.003-0.24,0.008-0.354
		c0.004-0.113,0.012-0.21,0.021-0.292c0.037-0.443,0.138-0.853,0.301-1.229c0.163-0.375,0.386-0.694,0.665-0.957
		c0.28-0.262,0.616-0.469,1.009-0.618C570.846,237.913,571.294,237.838,571.798,237.838z M573.842,242.073
		c0.019-0.154,0.027-0.342,0.027-0.563c0-0.222-0.009-0.414-0.027-0.577c-0.028-0.272-0.089-0.526-0.183-0.761
		c-0.093-0.236-0.224-0.439-0.392-0.61c-0.168-0.172-0.373-0.308-0.616-0.407c-0.242-0.101-0.527-0.15-0.854-0.15
		c-0.327,0-0.611,0.049-0.854,0.15c-0.242,0.099-0.447,0.235-0.616,0.407c-0.168,0.171-0.298,0.375-0.392,0.61
		c-0.094,0.235-0.154,0.489-0.182,0.761c-0.02,0.163-0.028,0.355-0.028,0.577c0,0.221,0.009,0.409,0.028,0.563
		c0.027,0.271,0.088,0.525,0.182,0.761c0.094,0.235,0.224,0.438,0.392,0.611c0.169,0.171,0.374,0.308,0.616,0.407
		c0.243,0.1,0.527,0.149,0.854,0.149c0.326,0,0.611-0.049,0.854-0.149c0.243-0.099,0.448-0.235,0.616-0.407
		c0.168-0.172,0.299-0.376,0.392-0.611C573.753,242.598,573.813,242.344,573.842,242.073z"/>
	<path fill="#384353" d="M578.168,242.046v2.62c0,0.1-0.038,0.186-0.112,0.258c-0.075,0.073-0.163,0.109-0.266,0.109h-0.519
		c-0.103,0-0.191-0.036-0.266-0.109c-0.075-0.072-0.112-0.158-0.112-0.258v-8.905c0-0.1,0.037-0.186,0.112-0.258
		c0.074-0.072,0.163-0.109,0.266-0.109h0.519c0.103,0,0.19,0.037,0.266,0.109c0.074,0.073,0.112,0.158,0.112,0.258v4.493l2.729-2.05
		c0.057-0.045,0.129-0.095,0.218-0.15c0.088-0.054,0.197-0.082,0.328-0.082h0.7c0.094,0,0.173,0.032,0.238,0.096
		s0.098,0.14,0.098,0.23c0,0.045-0.007,0.089-0.021,0.129c-0.015,0.041-0.059,0.088-0.133,0.142l-3.374,2.552l3.724,3.327
		c0.056,0.054,0.093,0.1,0.112,0.135c0.019,0.036,0.027,0.077,0.027,0.123c0,0.091-0.032,0.167-0.098,0.231
		s-0.145,0.095-0.238,0.095h-0.658c-0.14,0-0.259-0.028-0.356-0.082c-0.098-0.054-0.171-0.104-0.217-0.149L578.168,242.046z"/>
	<path fill="#384353" d="M586.624,237.838c0.504,0,0.952,0.075,1.344,0.224c0.392,0.149,0.728,0.356,1.008,0.618
		s0.502,0.582,0.665,0.957c0.163,0.376,0.264,0.786,0.301,1.229c0.01,0.082,0.015,0.179,0.015,0.292c0,0.114,0,0.231,0,0.354
		c0,0.122,0,0.239,0,0.353c0,0.113-0.005,0.206-0.015,0.277c-0.047,0.453-0.149,0.865-0.308,1.236
		c-0.159,0.371-0.378,0.688-0.658,0.951c-0.28,0.262-0.616,0.468-1.008,0.617c-0.392,0.15-0.84,0.224-1.344,0.224
		s-0.952-0.074-1.344-0.224c-0.393-0.149-0.729-0.355-1.009-0.617c-0.279-0.263-0.502-0.58-0.665-0.951s-0.264-0.783-0.301-1.236
		c-0.009-0.072-0.017-0.165-0.021-0.277c-0.005-0.114-0.008-0.231-0.008-0.353c0-0.123,0.003-0.24,0.008-0.354
		c0.004-0.113,0.012-0.21,0.021-0.292c0.037-0.443,0.138-0.853,0.301-1.229c0.163-0.375,0.386-0.694,0.665-0.957
		c0.28-0.262,0.616-0.469,1.009-0.618C585.672,237.913,586.12,237.838,586.624,237.838z M588.668,242.073
		c0.019-0.154,0.027-0.342,0.027-0.563c0-0.222-0.009-0.414-0.027-0.577c-0.028-0.272-0.089-0.526-0.183-0.761
		c-0.093-0.236-0.224-0.439-0.392-0.61c-0.168-0.172-0.373-0.308-0.616-0.407c-0.242-0.101-0.527-0.15-0.854-0.15
		c-0.327,0-0.611,0.049-0.854,0.15c-0.242,0.099-0.447,0.235-0.616,0.407c-0.168,0.171-0.298,0.375-0.392,0.61
		c-0.094,0.235-0.154,0.489-0.182,0.761c-0.02,0.163-0.028,0.355-0.028,0.577c0,0.221,0.009,0.409,0.028,0.563
		c0.027,0.271,0.088,0.525,0.182,0.761c0.094,0.235,0.224,0.438,0.392,0.611c0.169,0.171,0.374,0.308,0.616,0.407
		c0.243,0.1,0.527,0.149,0.854,0.149c0.326,0,0.611-0.049,0.854-0.149c0.243-0.099,0.448-0.235,0.616-0.407
		c0.168-0.172,0.299-0.376,0.392-0.611C588.579,242.598,588.64,242.344,588.668,242.073z"/>
	<path fill="#384353" d="M594.058,245.033c-0.121,0-0.215-0.036-0.28-0.109c-0.065-0.072-0.116-0.149-0.153-0.23l-2.786-6.299
		c-0.01-0.027-0.015-0.059-0.015-0.095c0-0.09,0.033-0.167,0.099-0.23s0.145-0.096,0.237-0.096h0.519
		c0.14,0,0.245,0.037,0.314,0.109c0.07,0.073,0.119,0.145,0.147,0.217l2.17,4.927l2.17-4.927c0.028-0.072,0.075-0.144,0.141-0.217
		c0.064-0.072,0.153-0.109,0.266-0.109h0.574c0.093,0,0.172,0.032,0.237,0.096s0.099,0.14,0.099,0.23
		c0,0.037-0.005,0.068-0.015,0.095l-2.785,6.299c-0.038,0.082-0.087,0.158-0.147,0.23c-0.061,0.073-0.151,0.109-0.273,0.109H594.058
		z"/>
	<path fill="#384353" d="M600.693,236.535c0,0.099-0.037,0.186-0.112,0.257c-0.074,0.073-0.163,0.109-0.266,0.109h-0.798
		c-0.103,0-0.191-0.036-0.266-0.109c-0.075-0.072-0.112-0.158-0.112-0.257v-0.774c0-0.1,0.037-0.186,0.112-0.258
		c0.074-0.072,0.163-0.109,0.266-0.109h0.798c0.103,0,0.191,0.037,0.266,0.109c0.075,0.073,0.112,0.158,0.112,0.258V236.535z
		 M600.554,244.666c0,0.1-0.038,0.186-0.112,0.258c-0.075,0.073-0.163,0.109-0.266,0.109h-0.519c-0.103,0-0.191-0.036-0.266-0.109
		c-0.075-0.072-0.112-0.158-0.112-0.258v-6.326c0-0.1,0.037-0.185,0.112-0.258c0.074-0.072,0.163-0.109,0.266-0.109h0.519
		c0.103,0,0.19,0.037,0.266,0.109c0.074,0.073,0.112,0.158,0.112,0.258V244.666z"/>
</g>
<g>
	<path fill="#384353" d="M563.538,145.172c0.457,0,0.889,0.057,1.295,0.169c0.405,0.114,0.763,0.288,1.07,0.523
		c0.309,0.235,0.554,0.534,0.735,0.896s0.273,0.792,0.273,1.29c0,0.499-0.092,0.93-0.273,1.296
		c-0.182,0.367-0.427,0.672-0.735,0.917c-0.308,0.244-0.665,0.425-1.07,0.542c-0.406,0.118-0.838,0.177-1.295,0.177h-2.576v3.326
		c0,0.1-0.037,0.186-0.112,0.258c-0.074,0.073-0.163,0.109-0.266,0.109h-0.574c-0.103,0-0.191-0.036-0.266-0.109
		c-0.075-0.072-0.112-0.158-0.112-0.258v-8.77c0-0.099,0.037-0.186,0.112-0.258c0.074-0.072,0.163-0.108,0.266-0.108H563.538z
		 M560.962,149.76h2.506c0.672,0,1.192-0.14,1.561-0.42c0.369-0.28,0.554-0.71,0.554-1.29c0-0.578-0.185-1-0.554-1.262
		c-0.368-0.262-0.889-0.394-1.561-0.394h-2.506V149.76z"/>
	<path fill="#384353" d="M572.134,147.615c0.103,0,0.191,0.037,0.266,0.109c0.075,0.073,0.112,0.158,0.112,0.258v0.435
		c0,0.1-0.037,0.186-0.112,0.257c-0.074,0.073-0.163,0.109-0.266,0.109h-0.812c-1.073,0-1.609,0.521-1.609,1.562v3.964
		c0,0.1-0.038,0.186-0.112,0.258c-0.075,0.073-0.163,0.109-0.266,0.109h-0.519c-0.103,0-0.191-0.036-0.266-0.109
		c-0.075-0.072-0.112-0.158-0.112-0.258v-6.326c0-0.1,0.037-0.185,0.112-0.258c0.074-0.072,0.163-0.109,0.266-0.109h0.519
		c0.103,0,0.19,0.037,0.266,0.109c0.074,0.073,0.112,0.158,0.112,0.258v0.421c0.187-0.272,0.41-0.471,0.672-0.598
		c0.261-0.127,0.602-0.19,1.021-0.19H572.134z"/>
	<path fill="#384353" d="M577.874,152.72c0-0.172-0.05-0.314-0.147-0.428c-0.098-0.112-0.245-0.21-0.44-0.292
		c-0.196-0.082-0.446-0.158-0.749-0.231c-0.304-0.072-0.656-0.149-1.058-0.231c-0.756-0.153-1.285-0.409-1.589-0.767
		c-0.304-0.357-0.455-0.775-0.455-1.256c0-0.271,0.056-0.529,0.168-0.773s0.28-0.461,0.504-0.651
		c0.225-0.19,0.507-0.339,0.848-0.448c0.34-0.109,0.739-0.163,1.196-0.163s0.856,0.05,1.197,0.149c0.341,0.1,0.628,0.227,0.861,0.38
		c0.233,0.154,0.41,0.319,0.531,0.495c0.122,0.177,0.188,0.347,0.196,0.51c0.01,0.099-0.025,0.186-0.104,0.257
		c-0.08,0.073-0.171,0.109-0.273,0.109h-0.462c-0.056,0-0.124-0.011-0.203-0.034c-0.079-0.022-0.151-0.075-0.217-0.156
		c-0.121-0.153-0.301-0.282-0.539-0.386s-0.567-0.156-0.987-0.156c-0.429,0-0.776,0.077-1.043,0.231
		c-0.266,0.153-0.398,0.367-0.398,0.637c0,0.172,0.037,0.311,0.111,0.415c0.075,0.104,0.196,0.194,0.364,0.271
		c0.168,0.078,0.39,0.148,0.665,0.21c0.275,0.063,0.618,0.141,1.029,0.231c0.429,0.091,0.788,0.207,1.078,0.347
		c0.289,0.14,0.522,0.298,0.699,0.475c0.178,0.176,0.304,0.372,0.379,0.583c0.074,0.213,0.111,0.437,0.111,0.672
		c0,0.271-0.067,0.534-0.203,0.787c-0.135,0.253-0.329,0.475-0.581,0.666c-0.252,0.189-0.558,0.344-0.917,0.461
		c-0.359,0.118-0.768,0.176-1.225,0.176s-0.863-0.054-1.218-0.163c-0.355-0.108-0.658-0.241-0.91-0.4
		c-0.252-0.158-0.446-0.33-0.581-0.515c-0.136-0.186-0.208-0.36-0.217-0.522c-0.01-0.1,0.023-0.186,0.098-0.259
		c0.075-0.072,0.168-0.108,0.28-0.108h0.504c0.056,0,0.121,0.007,0.196,0.02c0.074,0.013,0.145,0.066,0.21,0.156
		c0.148,0.199,0.354,0.353,0.615,0.461c0.262,0.109,0.603,0.163,1.022,0.163c0.205,0,0.408-0.022,0.609-0.067
		c0.2-0.045,0.378-0.109,0.531-0.19c0.154-0.081,0.278-0.179,0.371-0.292C577.827,152.979,577.874,152.855,577.874,152.72z"/>
	<path fill="#384353" d="M580.296,152.896c0-0.362,0.074-0.679,0.224-0.951c0.149-0.271,0.354-0.502,0.616-0.692
		c0.261-0.189,0.567-0.344,0.917-0.461c0.35-0.118,0.721-0.208,1.113-0.272l1.974-0.312v-0.176c0-0.461-0.156-0.808-0.469-1.039
		c-0.313-0.23-0.702-0.346-1.169-0.346c-0.411,0-0.722,0.072-0.932,0.217c-0.21,0.145-0.39,0.317-0.539,0.516
		c-0.056,0.073-0.116,0.122-0.182,0.15c-0.065,0.026-0.154,0.041-0.266,0.041h-0.42c-0.104,0-0.194-0.036-0.273-0.109
		c-0.079-0.072-0.114-0.158-0.104-0.258c0.019-0.2,0.1-0.403,0.244-0.611c0.145-0.208,0.341-0.393,0.589-0.556
		c0.247-0.163,0.531-0.296,0.854-0.4s0.665-0.156,1.029-0.156c0.42,0,0.81,0.059,1.169,0.176c0.359,0.118,0.667,0.29,0.924,0.516
		c0.257,0.226,0.457,0.506,0.602,0.842c0.145,0.335,0.218,0.719,0.218,1.153v4.141c0,0.1-0.038,0.186-0.112,0.258
		c-0.075,0.073-0.163,0.109-0.266,0.109h-0.519c-0.103,0-0.191-0.036-0.266-0.109c-0.075-0.072-0.112-0.158-0.112-0.258v-0.557
		c-0.084,0.172-0.215,0.324-0.392,0.455c-0.178,0.131-0.381,0.242-0.609,0.333c-0.229,0.09-0.467,0.158-0.714,0.204
		c-0.247,0.044-0.479,0.067-0.693,0.067c-0.364,0-0.697-0.049-1.001-0.149c-0.303-0.099-0.56-0.233-0.77-0.4
		s-0.374-0.369-0.49-0.604C580.354,153.42,580.296,153.167,580.296,152.896z M582.872,153.642c0.336,0,0.644-0.049,0.924-0.149
		c0.279-0.099,0.52-0.237,0.721-0.414c0.2-0.177,0.354-0.387,0.462-0.632c0.107-0.244,0.161-0.516,0.161-0.814v-0.34l-1.652,0.259
		c-0.588,0.09-1.055,0.235-1.399,0.434c-0.346,0.2-0.519,0.458-0.519,0.774c0,0.1,0.023,0.199,0.07,0.298
		c0.047,0.1,0.121,0.195,0.224,0.285c0.103,0.091,0.236,0.163,0.399,0.217C582.426,153.616,582.629,153.642,582.872,153.642z"/>
</g>
<g>
	<path fill="#384353" d="M848.873,278.137c0.569,0,1.071,0.087,1.505,0.26c0.435,0.171,0.803,0.382,1.106,0.63
		c0.303,0.249,0.534,0.517,0.692,0.802c0.159,0.284,0.243,0.54,0.252,0.767c0.01,0.081-0.019,0.151-0.084,0.21
		c-0.065,0.06-0.14,0.089-0.224,0.089h-0.574c-0.103,0-0.185-0.018-0.245-0.055c-0.061-0.036-0.123-0.118-0.188-0.244
		c-0.047-0.091-0.124-0.206-0.231-0.346s-0.252-0.276-0.434-0.407c-0.182-0.132-0.404-0.244-0.665-0.34
		c-0.262-0.095-0.564-0.143-0.91-0.143c-0.262,0-0.511,0.029-0.749,0.088s-0.45,0.147-0.637,0.265
		c-0.187,0.118-0.336,0.265-0.448,0.441s-0.168,0.382-0.168,0.618c0,0.234,0.054,0.434,0.161,0.597s0.28,0.311,0.518,0.441
		c0.238,0.132,0.539,0.251,0.903,0.36c0.364,0.108,0.808,0.23,1.33,0.365c0.532,0.137,0.982,0.285,1.351,0.448
		c0.369,0.163,0.67,0.347,0.903,0.55c0.233,0.204,0.403,0.439,0.511,0.706s0.161,0.567,0.161,0.903c0,0.407-0.091,0.78-0.272,1.12
		c-0.183,0.339-0.437,0.631-0.764,0.875c-0.326,0.244-0.721,0.435-1.183,0.569c-0.462,0.137-0.978,0.204-1.547,0.204
		c-0.542,0-1.041-0.077-1.498-0.229c-0.458-0.154-0.85-0.354-1.176-0.598c-0.327-0.244-0.586-0.516-0.777-0.814
		s-0.292-0.593-0.301-0.883c0-0.082,0.03-0.151,0.091-0.21c0.061-0.06,0.133-0.089,0.217-0.089h0.574
		c0.093,0,0.175,0.019,0.245,0.055c0.069,0.036,0.133,0.117,0.188,0.244c0.057,0.127,0.143,0.264,0.26,0.414
		c0.116,0.149,0.272,0.289,0.469,0.422c0.196,0.13,0.434,0.24,0.714,0.332c0.28,0.09,0.611,0.135,0.994,0.135
		c0.326,0,0.637-0.035,0.931-0.108c0.294-0.072,0.553-0.177,0.777-0.312c0.224-0.137,0.401-0.299,0.532-0.488
		c0.13-0.191,0.195-0.404,0.195-0.639c0-0.236-0.074-0.437-0.224-0.604c-0.149-0.168-0.364-0.32-0.645-0.455
		c-0.279-0.137-0.623-0.261-1.028-0.374c-0.406-0.112-0.866-0.233-1.379-0.36c-0.467-0.117-0.863-0.26-1.19-0.427
		s-0.593-0.36-0.798-0.577s-0.353-0.457-0.441-0.719c-0.089-0.263-0.133-0.548-0.133-0.855c0-0.335,0.07-0.66,0.21-0.979
		c0.141-0.316,0.348-0.596,0.623-0.84s0.621-0.441,1.036-0.592C847.825,278.212,848.313,278.137,848.873,278.137z"/>
	<path fill="#384353" d="M856.266,285.4c0,0.172,0.016,0.332,0.049,0.481c0.032,0.149,0.091,0.278,0.175,0.388
		c0.084,0.107,0.203,0.191,0.357,0.251c0.154,0.059,0.352,0.088,0.595,0.088h0.742c0.103,0,0.191,0.036,0.266,0.108
		c0.075,0.072,0.112,0.158,0.112,0.258v0.436c0,0.099-0.037,0.186-0.112,0.257c-0.074,0.073-0.163,0.108-0.266,0.108h-0.882
		c-0.812,0-1.4-0.203-1.765-0.61c-0.363-0.407-0.546-0.995-0.546-1.765v-3.516h-1.036c-0.103,0-0.191-0.037-0.266-0.109
		c-0.075-0.072-0.112-0.158-0.112-0.258v-0.435c0-0.099,0.037-0.185,0.112-0.257c0.074-0.072,0.163-0.109,0.266-0.109h1.036v-2.212
		c0-0.101,0.037-0.187,0.112-0.259c0.074-0.072,0.163-0.109,0.266-0.109h0.519c0.103,0,0.191,0.037,0.266,0.109
		c0.075,0.072,0.112,0.158,0.112,0.259v2.212h1.778c0.103,0,0.19,0.037,0.266,0.109c0.074,0.072,0.112,0.158,0.112,0.257v0.435
		c0,0.1-0.038,0.186-0.112,0.258c-0.075,0.072-0.163,0.109-0.266,0.109h-1.778V285.4z"/>
	<path fill="#384353" d="M863.657,280.717c0.103,0,0.191,0.037,0.266,0.109c0.075,0.072,0.112,0.158,0.112,0.257v0.435
		c0,0.1-0.037,0.186-0.112,0.258c-0.074,0.072-0.163,0.109-0.266,0.109h-0.812c-1.073,0-1.609,0.52-1.609,1.561v3.965
		c0,0.099-0.038,0.186-0.112,0.257c-0.075,0.073-0.163,0.108-0.266,0.108h-0.519c-0.103,0-0.191-0.035-0.266-0.108
		c-0.075-0.071-0.112-0.158-0.112-0.257v-6.327c0-0.099,0.037-0.185,0.112-0.257c0.074-0.072,0.163-0.109,0.266-0.109h0.519
		c0.103,0,0.19,0.037,0.266,0.109c0.074,0.072,0.112,0.158,0.112,0.257v0.421c0.187-0.271,0.41-0.471,0.672-0.597
		c0.261-0.127,0.602-0.19,1.021-0.19H863.657z"/>
	<path fill="#384353" d="M865.184,281.083c0-0.099,0.037-0.185,0.111-0.257c0.075-0.072,0.163-0.109,0.267-0.109h0.518
		c0.103,0,0.191,0.037,0.266,0.109c0.075,0.072,0.112,0.158,0.112,0.257v3.584c0,0.697,0.161,1.218,0.483,1.562
		c0.321,0.344,0.791,0.516,1.406,0.516c0.589,0,1.051-0.172,1.387-0.516s0.504-0.864,0.504-1.562v-3.584
		c0-0.099,0.037-0.185,0.112-0.257c0.074-0.072,0.163-0.109,0.266-0.109h0.518c0.103,0,0.191,0.037,0.267,0.109
		c0.074,0.072,0.111,0.158,0.111,0.257v6.327c0,0.099-0.037,0.186-0.111,0.257c-0.075,0.073-0.164,0.108-0.267,0.108h-0.518
		c-0.103,0-0.191-0.035-0.266-0.108c-0.075-0.071-0.112-0.158-0.112-0.257v-0.422c-0.178,0.227-0.43,0.438-0.756,0.631
		c-0.327,0.195-0.775,0.292-1.345,0.292c-0.438,0-0.84-0.069-1.203-0.21c-0.364-0.141-0.678-0.339-0.938-0.598
		c-0.262-0.258-0.462-0.574-0.602-0.949c-0.141-0.377-0.21-0.803-0.21-1.283V281.083z"/>
	<path fill="#384353" d="M874.885,284.789v2.621c0,0.099-0.038,0.186-0.112,0.257c-0.075,0.073-0.163,0.108-0.266,0.108h-0.519
		c-0.103,0-0.191-0.035-0.266-0.108c-0.075-0.071-0.112-0.158-0.112-0.257v-8.905c0-0.101,0.037-0.187,0.112-0.259
		c0.074-0.072,0.163-0.109,0.266-0.109h0.519c0.103,0,0.19,0.037,0.266,0.109c0.074,0.072,0.112,0.158,0.112,0.259v4.493
		l2.729-2.051c0.057-0.045,0.129-0.094,0.218-0.148c0.088-0.055,0.197-0.082,0.328-0.082h0.7c0.094,0,0.173,0.032,0.238,0.096
		s0.098,0.141,0.098,0.23c0,0.045-0.007,0.088-0.021,0.129c-0.015,0.041-0.059,0.088-0.133,0.143l-3.374,2.552l3.724,3.326
		c0.056,0.054,0.093,0.1,0.112,0.136c0.019,0.035,0.027,0.076,0.027,0.122c0,0.091-0.032,0.167-0.098,0.231
		c-0.065,0.062-0.145,0.094-0.238,0.094h-0.658c-0.14,0-0.259-0.027-0.356-0.081s-0.171-0.104-0.217-0.149L874.885,284.789z"/>
</g>
<g>
	<path fill="#384353" d="M845.57,315.229c-0.104,0-0.192-0.036-0.267-0.109c-0.075-0.072-0.112-0.158-0.112-0.258v-8.769
		c0-0.1,0.037-0.187,0.112-0.259c0.074-0.072,0.163-0.107,0.266-0.107h3.752c0.598,0,1.092,0.088,1.484,0.264
		c0.392,0.178,0.704,0.395,0.938,0.651c0.233,0.259,0.399,0.537,0.497,0.835c0.098,0.3,0.147,0.566,0.147,0.801
		c0,0.299-0.047,0.562-0.139,0.787c-0.092,0.227-0.2,0.417-0.325,0.571c-0.124,0.153-0.249,0.276-0.373,0.366
		s-0.214,0.154-0.27,0.189c0.354,0.236,0.665,0.546,0.931,0.93c0.267,0.386,0.399,0.836,0.399,1.352c0,0.344-0.065,0.68-0.196,1.005
		s-0.325,0.619-0.582,0.882c-0.258,0.264-0.58,0.473-0.968,0.631c-0.389,0.158-0.835,0.238-1.34,0.238H845.57z M846.521,306.947
		v2.742h2.66c0.625,0,1.094-0.117,1.406-0.353c0.313-0.235,0.47-0.575,0.47-1.019s-0.156-0.783-0.47-1.018
		c-0.312-0.236-0.781-0.354-1.406-0.354H846.521z M846.521,310.912v3.095h2.864c0.309,0,0.583-0.04,0.821-0.122
		s0.438-0.195,0.597-0.34s0.278-0.307,0.358-0.488c0.079-0.182,0.119-0.375,0.119-0.584c0-0.199-0.037-0.394-0.112-0.584
		c-0.075-0.189-0.189-0.357-0.344-0.502s-0.352-0.26-0.59-0.347c-0.239-0.085-0.522-0.128-0.85-0.128H846.521z"/>
	<path fill="#384353" d="M857.357,308.033c0.504,0,0.952,0.075,1.344,0.225c0.392,0.148,0.728,0.355,1.008,0.617
		c0.28,0.263,0.502,0.582,0.665,0.957c0.163,0.376,0.264,0.785,0.301,1.229c0.01,0.082,0.015,0.18,0.015,0.292
		c0,0.114,0,0.231,0,0.354s0,0.239,0,0.353s-0.005,0.206-0.015,0.277c-0.047,0.453-0.149,0.865-0.308,1.236
		c-0.159,0.371-0.378,0.688-0.658,0.951c-0.28,0.262-0.616,0.467-1.008,0.617c-0.392,0.149-0.84,0.223-1.344,0.223
		s-0.952-0.073-1.344-0.223c-0.393-0.15-0.729-0.355-1.009-0.617c-0.279-0.264-0.502-0.58-0.665-0.951s-0.264-0.783-0.301-1.236
		c-0.009-0.071-0.017-0.164-0.021-0.277c-0.005-0.113-0.008-0.23-0.008-0.353s0.003-0.239,0.008-0.354
		c0.004-0.112,0.012-0.21,0.021-0.292c0.037-0.443,0.138-0.853,0.301-1.229c0.163-0.375,0.386-0.694,0.665-0.957
		c0.28-0.262,0.616-0.469,1.009-0.617C856.405,308.108,856.854,308.033,857.357,308.033z M859.401,312.27
		c0.019-0.154,0.027-0.342,0.027-0.563s-0.009-0.414-0.027-0.577c-0.028-0.271-0.089-0.525-0.183-0.76
		c-0.093-0.236-0.224-0.439-0.392-0.611s-0.373-0.308-0.616-0.406c-0.242-0.102-0.527-0.15-0.854-0.15
		c-0.327,0-0.611,0.049-0.854,0.15c-0.242,0.099-0.447,0.234-0.616,0.406c-0.168,0.172-0.298,0.375-0.392,0.611
		c-0.094,0.234-0.154,0.488-0.182,0.76c-0.02,0.163-0.028,0.355-0.028,0.577s0.009,0.409,0.028,0.563
		c0.027,0.271,0.088,0.524,0.182,0.76s0.224,0.439,0.392,0.611c0.169,0.172,0.374,0.308,0.616,0.406
		c0.243,0.1,0.527,0.149,0.854,0.149c0.326,0,0.611-0.05,0.854-0.149c0.243-0.099,0.448-0.234,0.616-0.406s0.299-0.376,0.392-0.611
		C859.312,312.794,859.373,312.54,859.401,312.27z"/>
	<path fill="#384353" d="M863.728,312.242v2.619c0,0.1-0.038,0.186-0.112,0.258c-0.075,0.073-0.163,0.109-0.266,0.109h-0.519
		c-0.103,0-0.191-0.036-0.266-0.109c-0.075-0.072-0.112-0.158-0.112-0.258v-8.904c0-0.1,0.037-0.186,0.112-0.258
		c0.074-0.072,0.163-0.109,0.266-0.109h0.519c0.103,0,0.19,0.037,0.266,0.109c0.074,0.072,0.112,0.158,0.112,0.258v4.493l2.729-2.05
		c0.057-0.045,0.129-0.095,0.218-0.15c0.088-0.053,0.197-0.081,0.328-0.081h0.7c0.094,0,0.173,0.032,0.238,0.096
		s0.098,0.14,0.098,0.23c0,0.046-0.007,0.089-0.021,0.13c-0.015,0.041-0.059,0.088-0.133,0.142l-3.374,2.552l3.724,3.326
		c0.056,0.055,0.093,0.1,0.112,0.136c0.019,0.036,0.027,0.077,0.027,0.122c0,0.092-0.032,0.168-0.098,0.231
		s-0.145,0.095-0.238,0.095h-0.658c-0.14,0-0.259-0.027-0.356-0.082c-0.098-0.054-0.171-0.104-0.217-0.148L863.728,312.242z"/>
	<path fill="#384353" d="M872.184,308.033c0.504,0,0.952,0.075,1.344,0.225c0.392,0.148,0.728,0.355,1.008,0.617
		c0.28,0.263,0.502,0.582,0.665,0.957c0.163,0.376,0.264,0.785,0.301,1.229c0.01,0.082,0.015,0.18,0.015,0.292
		c0,0.114,0,0.231,0,0.354s0,0.239,0,0.353s-0.005,0.206-0.015,0.277c-0.047,0.453-0.149,0.865-0.308,1.236
		c-0.159,0.371-0.378,0.688-0.658,0.951c-0.28,0.262-0.616,0.467-1.008,0.617c-0.392,0.149-0.84,0.223-1.344,0.223
		s-0.952-0.073-1.344-0.223c-0.393-0.15-0.729-0.355-1.009-0.617c-0.279-0.264-0.502-0.58-0.665-0.951s-0.264-0.783-0.301-1.236
		c-0.009-0.071-0.017-0.164-0.021-0.277c-0.005-0.113-0.008-0.23-0.008-0.353s0.003-0.239,0.008-0.354
		c0.004-0.112,0.012-0.21,0.021-0.292c0.037-0.443,0.138-0.853,0.301-1.229c0.163-0.375,0.386-0.694,0.665-0.957
		c0.28-0.262,0.616-0.469,1.009-0.617C871.231,308.108,871.68,308.033,872.184,308.033z M874.228,312.27
		c0.019-0.154,0.027-0.342,0.027-0.563s-0.009-0.414-0.027-0.577c-0.028-0.271-0.089-0.525-0.183-0.76
		c-0.093-0.236-0.224-0.439-0.392-0.611s-0.373-0.308-0.616-0.406c-0.242-0.102-0.527-0.15-0.854-0.15
		c-0.327,0-0.611,0.049-0.854,0.15c-0.242,0.099-0.447,0.234-0.616,0.406c-0.168,0.172-0.298,0.375-0.392,0.611
		c-0.094,0.234-0.154,0.488-0.182,0.76c-0.02,0.163-0.028,0.355-0.028,0.577s0.009,0.409,0.028,0.563
		c0.027,0.271,0.088,0.524,0.182,0.76s0.224,0.439,0.392,0.611c0.169,0.172,0.374,0.308,0.616,0.406
		c0.243,0.1,0.527,0.149,0.854,0.149c0.326,0,0.611-0.05,0.854-0.149c0.243-0.099,0.448-0.234,0.616-0.406s0.299-0.376,0.392-0.611
		C874.139,312.794,874.199,312.54,874.228,312.27z"/>
	<path fill="#384353" d="M879.617,315.229c-0.121,0-0.215-0.036-0.28-0.109c-0.065-0.072-0.116-0.148-0.153-0.23l-2.786-6.299
		c-0.01-0.027-0.015-0.059-0.015-0.095c0-0.091,0.033-0.167,0.099-0.23s0.145-0.096,0.237-0.096h0.519
		c0.14,0,0.245,0.037,0.314,0.108c0.07,0.074,0.119,0.146,0.147,0.218l2.17,4.927l2.17-4.927c0.028-0.072,0.075-0.144,0.141-0.218
		c0.064-0.071,0.153-0.108,0.266-0.108h0.574c0.093,0,0.172,0.032,0.237,0.096s0.099,0.14,0.099,0.23
		c0,0.036-0.005,0.067-0.015,0.095l-2.785,6.299c-0.038,0.082-0.087,0.158-0.147,0.23c-0.061,0.073-0.151,0.109-0.273,0.109H879.617
		z"/>
	<path fill="#384353" d="M886.253,306.73c0,0.1-0.037,0.186-0.112,0.258c-0.074,0.072-0.163,0.109-0.266,0.109h-0.798
		c-0.103,0-0.191-0.037-0.266-0.109c-0.075-0.072-0.112-0.158-0.112-0.258v-0.773c0-0.1,0.037-0.186,0.112-0.258
		c0.074-0.072,0.163-0.109,0.266-0.109h0.798c0.103,0,0.191,0.037,0.266,0.109c0.075,0.072,0.112,0.158,0.112,0.258V306.73z
		 M886.113,314.861c0,0.1-0.038,0.186-0.112,0.258c-0.075,0.073-0.163,0.109-0.266,0.109h-0.519c-0.103,0-0.191-0.036-0.266-0.109
		c-0.075-0.072-0.112-0.158-0.112-0.258v-6.326c0-0.1,0.037-0.184,0.112-0.258c0.074-0.071,0.163-0.108,0.266-0.108h0.519
		c0.103,0,0.19,0.037,0.266,0.108c0.074,0.074,0.112,0.158,0.112,0.258V314.861z"/>
</g>
<g>
	<path fill="#384353" d="M849.098,235.368c0.457,0,0.889,0.057,1.295,0.169c0.405,0.114,0.763,0.288,1.07,0.523
		c0.309,0.235,0.554,0.534,0.735,0.896s0.273,0.792,0.273,1.29c0,0.499-0.092,0.93-0.273,1.296
		c-0.182,0.367-0.427,0.672-0.735,0.917c-0.308,0.244-0.665,0.425-1.07,0.542c-0.406,0.118-0.838,0.177-1.295,0.177h-2.576v3.326
		c0,0.1-0.037,0.186-0.112,0.258c-0.074,0.073-0.163,0.109-0.266,0.109h-0.574c-0.103,0-0.191-0.036-0.266-0.109
		c-0.075-0.072-0.112-0.158-0.112-0.258v-8.77c0-0.099,0.037-0.186,0.112-0.258c0.074-0.072,0.163-0.108,0.266-0.108H849.098z
		 M846.521,239.956h2.506c0.672,0,1.192-0.14,1.561-0.42c0.369-0.28,0.554-0.71,0.554-1.29c0-0.578-0.185-1-0.554-1.262
		c-0.368-0.262-0.889-0.394-1.561-0.394h-2.506V239.956z"/>
	<path fill="#384353" d="M857.693,237.811c0.103,0,0.191,0.037,0.266,0.109c0.075,0.073,0.112,0.158,0.112,0.258v0.435
		c0,0.1-0.037,0.186-0.112,0.257c-0.074,0.073-0.163,0.109-0.266,0.109h-0.812c-1.073,0-1.609,0.521-1.609,1.562v3.964
		c0,0.1-0.038,0.186-0.112,0.258c-0.075,0.073-0.163,0.109-0.266,0.109h-0.519c-0.103,0-0.191-0.036-0.266-0.109
		c-0.075-0.072-0.112-0.158-0.112-0.258v-6.326c0-0.1,0.037-0.185,0.112-0.258c0.074-0.072,0.163-0.109,0.266-0.109h0.519
		c0.103,0,0.19,0.037,0.266,0.109c0.074,0.073,0.112,0.158,0.112,0.258v0.421c0.187-0.272,0.41-0.471,0.672-0.598
		c0.261-0.127,0.602-0.19,1.021-0.19H857.693z"/>
	<path fill="#384353" d="M863.434,242.916c0-0.172-0.05-0.314-0.147-0.428c-0.098-0.112-0.245-0.21-0.44-0.292
		c-0.196-0.082-0.446-0.158-0.749-0.231c-0.304-0.072-0.656-0.149-1.058-0.231c-0.756-0.153-1.285-0.409-1.589-0.767
		c-0.304-0.357-0.455-0.775-0.455-1.256c0-0.271,0.056-0.529,0.168-0.773s0.28-0.461,0.504-0.651
		c0.225-0.19,0.507-0.339,0.848-0.448c0.34-0.109,0.739-0.163,1.196-0.163s0.856,0.05,1.197,0.149c0.341,0.1,0.628,0.227,0.861,0.38
		c0.233,0.154,0.41,0.319,0.531,0.495c0.122,0.177,0.188,0.347,0.196,0.51c0.01,0.099-0.025,0.186-0.104,0.257
		c-0.08,0.073-0.171,0.109-0.273,0.109h-0.462c-0.056,0-0.124-0.011-0.203-0.034c-0.079-0.022-0.151-0.075-0.217-0.156
		c-0.121-0.153-0.301-0.282-0.539-0.386s-0.567-0.156-0.987-0.156c-0.429,0-0.776,0.077-1.043,0.231
		c-0.266,0.153-0.398,0.367-0.398,0.637c0,0.172,0.037,0.311,0.111,0.415c0.075,0.104,0.196,0.194,0.364,0.271
		c0.168,0.078,0.39,0.148,0.665,0.21c0.275,0.063,0.618,0.141,1.029,0.231c0.429,0.091,0.788,0.207,1.078,0.347
		c0.289,0.14,0.522,0.298,0.699,0.475c0.178,0.176,0.304,0.372,0.379,0.583c0.074,0.213,0.111,0.437,0.111,0.672
		c0,0.271-0.067,0.534-0.203,0.787c-0.135,0.253-0.329,0.475-0.581,0.666c-0.252,0.189-0.558,0.344-0.917,0.461
		c-0.359,0.118-0.768,0.176-1.225,0.176s-0.863-0.054-1.218-0.163c-0.355-0.108-0.658-0.241-0.91-0.4
		c-0.252-0.158-0.446-0.33-0.581-0.515c-0.136-0.186-0.208-0.36-0.217-0.522c-0.01-0.1,0.023-0.186,0.098-0.259
		c0.075-0.072,0.168-0.108,0.28-0.108h0.504c0.056,0,0.121,0.007,0.196,0.02c0.074,0.013,0.145,0.066,0.21,0.156
		c0.148,0.199,0.354,0.353,0.615,0.461c0.262,0.109,0.603,0.163,1.022,0.163c0.205,0,0.408-0.022,0.609-0.067
		c0.2-0.045,0.378-0.109,0.531-0.19c0.154-0.081,0.278-0.179,0.371-0.292C863.387,243.175,863.434,243.051,863.434,242.916z"/>
	<path fill="#384353" d="M865.855,243.092c0-0.362,0.074-0.679,0.224-0.951c0.149-0.271,0.354-0.502,0.616-0.692
		c0.261-0.189,0.567-0.344,0.917-0.461c0.35-0.118,0.721-0.208,1.113-0.272l1.974-0.312v-0.176c0-0.461-0.156-0.808-0.469-1.039
		c-0.313-0.23-0.702-0.346-1.169-0.346c-0.411,0-0.722,0.072-0.932,0.217c-0.21,0.145-0.39,0.317-0.539,0.516
		c-0.056,0.073-0.116,0.122-0.182,0.15c-0.065,0.026-0.154,0.041-0.266,0.041h-0.42c-0.104,0-0.194-0.036-0.273-0.109
		c-0.079-0.072-0.114-0.158-0.104-0.258c0.019-0.2,0.1-0.403,0.244-0.611c0.145-0.208,0.341-0.393,0.589-0.556
		c0.247-0.163,0.531-0.296,0.854-0.4s0.665-0.156,1.029-0.156c0.42,0,0.81,0.059,1.169,0.176c0.359,0.118,0.667,0.29,0.924,0.516
		c0.257,0.226,0.457,0.506,0.602,0.842c0.145,0.335,0.218,0.719,0.218,1.153v4.141c0,0.1-0.038,0.186-0.112,0.258
		c-0.075,0.073-0.163,0.109-0.266,0.109h-0.519c-0.103,0-0.191-0.036-0.266-0.109c-0.075-0.072-0.112-0.158-0.112-0.258v-0.557
		c-0.084,0.172-0.215,0.324-0.392,0.455c-0.178,0.131-0.381,0.242-0.609,0.333c-0.229,0.09-0.467,0.158-0.714,0.204
		c-0.247,0.044-0.479,0.067-0.693,0.067c-0.364,0-0.697-0.049-1.001-0.149c-0.303-0.099-0.56-0.233-0.77-0.4
		s-0.374-0.369-0.49-0.604C865.913,243.616,865.855,243.363,865.855,243.092z M868.432,243.838c0.336,0,0.644-0.049,0.924-0.149
		c0.279-0.099,0.52-0.237,0.721-0.414c0.2-0.177,0.354-0.387,0.462-0.632c0.107-0.244,0.161-0.516,0.161-0.814v-0.34l-1.652,0.259
		c-0.588,0.09-1.055,0.235-1.399,0.434c-0.346,0.2-0.519,0.458-0.519,0.774c0,0.1,0.023,0.199,0.07,0.298
		c0.047,0.1,0.121,0.195,0.224,0.285c0.103,0.091,0.236,0.163,0.399,0.217C867.985,243.812,868.188,243.838,868.432,243.838z"/>
</g>
<g>
	<path fill="#384353" d="M223.066,201.625c0.569,0,1.071,0.086,1.505,0.259c0.435,0.171,0.803,0.382,1.106,0.63
		c0.303,0.249,0.534,0.516,0.692,0.801c0.159,0.285,0.243,0.541,0.252,0.767c0.01,0.081-0.019,0.151-0.084,0.21
		c-0.065,0.06-0.14,0.089-0.224,0.089h-0.574c-0.103,0-0.185-0.018-0.245-0.055c-0.061-0.036-0.123-0.118-0.188-0.244
		c-0.047-0.09-0.124-0.206-0.231-0.346s-0.252-0.277-0.434-0.407c-0.182-0.132-0.404-0.245-0.665-0.34
		c-0.262-0.095-0.564-0.142-0.91-0.142c-0.262,0-0.511,0.029-0.749,0.088s-0.45,0.147-0.637,0.264
		c-0.187,0.119-0.336,0.265-0.448,0.441c-0.112,0.177-0.168,0.382-0.168,0.618c0,0.235,0.054,0.434,0.161,0.597
		c0.107,0.163,0.28,0.311,0.518,0.441c0.238,0.131,0.539,0.251,0.903,0.36c0.364,0.109,0.808,0.231,1.33,0.366
		c0.532,0.136,0.982,0.285,1.351,0.448c0.369,0.163,0.67,0.347,0.903,0.55s0.403,0.439,0.511,0.706
		c0.107,0.267,0.161,0.568,0.161,0.903c0,0.407-0.091,0.78-0.272,1.12c-0.183,0.339-0.437,0.631-0.764,0.875
		c-0.326,0.244-0.721,0.435-1.183,0.57c-0.462,0.137-0.978,0.204-1.547,0.204c-0.542,0-1.041-0.077-1.498-0.23
		c-0.458-0.154-0.85-0.353-1.176-0.598c-0.327-0.244-0.586-0.516-0.777-0.814c-0.191-0.299-0.292-0.593-0.301-0.883
		c0-0.082,0.03-0.151,0.091-0.21c0.061-0.059,0.133-0.089,0.217-0.089h0.574c0.093,0,0.175,0.019,0.245,0.055
		c0.069,0.036,0.133,0.117,0.188,0.244c0.057,0.127,0.143,0.264,0.26,0.414c0.116,0.149,0.272,0.29,0.469,0.421
		c0.196,0.13,0.434,0.241,0.714,0.332c0.28,0.09,0.611,0.136,0.994,0.136c0.326,0,0.637-0.036,0.931-0.109
		c0.294-0.072,0.553-0.176,0.777-0.312c0.224-0.137,0.401-0.299,0.532-0.489c0.13-0.19,0.195-0.403,0.195-0.638
		c0-0.236-0.074-0.437-0.224-0.604c-0.149-0.168-0.364-0.319-0.645-0.455c-0.279-0.136-0.623-0.261-1.028-0.374
		c-0.406-0.113-0.866-0.233-1.379-0.36c-0.467-0.118-0.863-0.26-1.19-0.427s-0.593-0.36-0.798-0.577
		c-0.205-0.218-0.353-0.457-0.441-0.72c-0.089-0.262-0.133-0.547-0.133-0.855c0-0.335,0.07-0.661,0.21-0.978
		c0.141-0.316,0.348-0.597,0.623-0.841s0.621-0.441,1.036-0.591C222.019,201.7,222.507,201.625,223.066,201.625z"/>
	<path fill="#384353" d="M230.459,208.888c0,0.172,0.016,0.333,0.049,0.482c0.032,0.15,0.091,0.279,0.175,0.388
		c0.084,0.108,0.203,0.192,0.357,0.251c0.154,0.059,0.352,0.088,0.595,0.088h0.742c0.103,0,0.191,0.036,0.266,0.109
		c0.075,0.072,0.112,0.158,0.112,0.257v0.435c0,0.099-0.037,0.186-0.112,0.257c-0.074,0.073-0.163,0.109-0.266,0.109h-0.882
		c-0.812,0-1.4-0.204-1.765-0.611c-0.363-0.407-0.546-0.995-0.546-1.765v-3.516h-1.036c-0.103,0-0.191-0.036-0.266-0.109
		c-0.075-0.072-0.112-0.158-0.112-0.258v-0.435c0-0.099,0.037-0.185,0.112-0.257c0.074-0.072,0.163-0.109,0.266-0.109h1.036v-2.212
		c0-0.101,0.037-0.186,0.112-0.259c0.074-0.072,0.163-0.109,0.266-0.109h0.519c0.103,0,0.191,0.037,0.266,0.109
		c0.075,0.073,0.112,0.158,0.112,0.259v2.212h1.778c0.103,0,0.19,0.037,0.266,0.109c0.074,0.073,0.112,0.158,0.112,0.257v0.435
		c0,0.1-0.038,0.186-0.112,0.258c-0.075,0.073-0.163,0.109-0.266,0.109h-1.778V208.888z"/>
	<path fill="#384353" d="M237.851,204.205c0.103,0,0.191,0.037,0.266,0.109c0.075,0.073,0.112,0.158,0.112,0.257v0.435
		c0,0.1-0.037,0.186-0.112,0.258c-0.074,0.073-0.163,0.109-0.266,0.109h-0.812c-1.073,0-1.609,0.521-1.609,1.562v3.964
		c0,0.099-0.038,0.186-0.112,0.257c-0.075,0.073-0.163,0.109-0.266,0.109h-0.519c-0.103,0-0.191-0.036-0.266-0.109
		c-0.075-0.072-0.112-0.158-0.112-0.257v-6.327c0-0.099,0.037-0.185,0.112-0.257c0.074-0.072,0.163-0.109,0.266-0.109h0.519
		c0.103,0,0.19,0.037,0.266,0.109c0.074,0.073,0.112,0.158,0.112,0.257v0.421c0.187-0.271,0.41-0.471,0.672-0.597
		c0.261-0.127,0.602-0.19,1.021-0.19H237.851z"/>
	<path fill="#384353" d="M239.377,204.571c0-0.099,0.037-0.185,0.111-0.257c0.075-0.072,0.163-0.109,0.267-0.109h0.518
		c0.103,0,0.191,0.037,0.266,0.109c0.075,0.073,0.112,0.158,0.112,0.257v3.584c0,0.697,0.161,1.218,0.483,1.562
		c0.321,0.344,0.791,0.515,1.406,0.515c0.589,0,1.051-0.171,1.387-0.515s0.504-0.864,0.504-1.562v-3.584
		c0-0.099,0.037-0.185,0.112-0.257c0.074-0.072,0.163-0.109,0.266-0.109h0.518c0.103,0,0.191,0.037,0.267,0.109
		c0.074,0.073,0.111,0.158,0.111,0.257v6.327c0,0.099-0.037,0.186-0.111,0.257c-0.075,0.073-0.164,0.109-0.267,0.109h-0.518
		c-0.103,0-0.191-0.036-0.266-0.109c-0.075-0.072-0.112-0.158-0.112-0.257v-0.421c-0.178,0.227-0.43,0.437-0.756,0.631
		c-0.327,0.195-0.775,0.292-1.345,0.292c-0.438,0-0.84-0.07-1.203-0.21c-0.364-0.14-0.678-0.339-0.938-0.598
		c-0.262-0.257-0.462-0.574-0.602-0.95c-0.141-0.376-0.21-0.803-0.21-1.283V204.571z"/>
	<path fill="#384353" d="M249.078,208.278v2.62c0,0.099-0.038,0.186-0.112,0.257c-0.075,0.073-0.163,0.109-0.266,0.109h-0.519
		c-0.103,0-0.191-0.036-0.266-0.109c-0.075-0.072-0.112-0.158-0.112-0.257v-8.905c0-0.101,0.037-0.186,0.112-0.259
		c0.074-0.072,0.163-0.109,0.266-0.109h0.519c0.103,0,0.19,0.037,0.266,0.109c0.074,0.073,0.112,0.158,0.112,0.259v4.493l2.729-2.05
		c0.057-0.045,0.129-0.095,0.218-0.149c0.088-0.054,0.197-0.082,0.328-0.082h0.7c0.094,0,0.173,0.032,0.238,0.096
		s0.098,0.14,0.098,0.23c0,0.045-0.007,0.089-0.021,0.13c-0.015,0.041-0.059,0.088-0.133,0.142l-3.374,2.552l3.724,3.326
		c0.056,0.054,0.093,0.1,0.112,0.136c0.019,0.036,0.027,0.077,0.027,0.122c0,0.091-0.032,0.167-0.098,0.231
		s-0.145,0.095-0.238,0.095h-0.658c-0.14,0-0.259-0.027-0.356-0.082c-0.098-0.054-0.171-0.104-0.217-0.149L249.078,208.278z"/>
</g>
<g>
	<path fill="#384353" d="M219.764,249.717c-0.104,0-0.192-0.036-0.267-0.109c-0.075-0.072-0.112-0.158-0.112-0.258v-8.769
		c0-0.1,0.037-0.186,0.112-0.259c0.074-0.072,0.163-0.108,0.266-0.108h3.752c0.598,0,1.092,0.088,1.484,0.264
		c0.392,0.177,0.704,0.394,0.938,0.651c0.233,0.259,0.399,0.537,0.497,0.835c0.098,0.299,0.147,0.566,0.147,0.801
		c0,0.298-0.047,0.562-0.139,0.787c-0.092,0.226-0.2,0.417-0.325,0.571c-0.124,0.154-0.249,0.276-0.373,0.367
		c-0.124,0.09-0.214,0.153-0.27,0.189c0.354,0.236,0.665,0.545,0.931,0.93c0.267,0.385,0.399,0.835,0.399,1.351
		c0,0.344-0.065,0.679-0.196,1.005s-0.325,0.619-0.582,0.881c-0.258,0.264-0.58,0.474-0.968,0.632
		c-0.389,0.158-0.835,0.238-1.34,0.238H219.764z M220.715,241.436v2.742h2.66c0.625,0,1.094-0.118,1.406-0.353
		c0.313-0.235,0.47-0.575,0.47-1.018c0-0.443-0.156-0.783-0.47-1.018c-0.312-0.236-0.781-0.353-1.406-0.353H220.715z M220.715,245.4
		v3.095h2.864c0.309,0,0.583-0.041,0.821-0.122s0.438-0.195,0.597-0.34c0.159-0.144,0.278-0.307,0.358-0.489
		c0.079-0.181,0.119-0.375,0.119-0.583c0-0.199-0.037-0.394-0.112-0.584c-0.075-0.189-0.189-0.357-0.344-0.502
		s-0.352-0.26-0.59-0.347c-0.239-0.085-0.522-0.128-0.85-0.128H220.715z"/>
	<path fill="#384353" d="M231.551,242.522c0.504,0,0.952,0.075,1.344,0.224c0.392,0.149,0.728,0.356,1.008,0.618
		s0.502,0.582,0.665,0.957c0.163,0.376,0.264,0.786,0.301,1.229c0.01,0.082,0.015,0.179,0.015,0.292c0,0.114,0,0.231,0,0.354
		c0,0.122,0,0.239,0,0.353c0,0.113-0.005,0.206-0.015,0.277c-0.047,0.453-0.149,0.865-0.308,1.236
		c-0.159,0.371-0.378,0.688-0.658,0.951c-0.28,0.262-0.616,0.468-1.008,0.617c-0.392,0.15-0.84,0.224-1.344,0.224
		s-0.952-0.074-1.344-0.224c-0.393-0.149-0.729-0.355-1.009-0.617c-0.279-0.263-0.502-0.58-0.665-0.951s-0.264-0.783-0.301-1.236
		c-0.009-0.072-0.017-0.165-0.021-0.277c-0.005-0.114-0.008-0.231-0.008-0.353c0-0.123,0.003-0.24,0.008-0.354
		c0.004-0.113,0.012-0.21,0.021-0.292c0.037-0.443,0.138-0.853,0.301-1.229c0.163-0.375,0.386-0.694,0.665-0.957
		c0.28-0.262,0.616-0.469,1.009-0.618C230.599,242.597,231.047,242.522,231.551,242.522z M233.595,246.757
		c0.019-0.154,0.027-0.342,0.027-0.563c0-0.222-0.009-0.414-0.027-0.577c-0.028-0.272-0.089-0.526-0.183-0.761
		c-0.093-0.236-0.224-0.439-0.392-0.61c-0.168-0.172-0.373-0.308-0.616-0.407c-0.242-0.101-0.527-0.15-0.854-0.15
		c-0.327,0-0.611,0.049-0.854,0.15c-0.242,0.099-0.447,0.235-0.616,0.407c-0.168,0.171-0.298,0.375-0.392,0.61
		c-0.094,0.235-0.154,0.489-0.182,0.761c-0.02,0.163-0.028,0.355-0.028,0.577c0,0.221,0.009,0.409,0.028,0.563
		c0.027,0.271,0.088,0.525,0.182,0.761c0.094,0.235,0.224,0.438,0.392,0.611c0.169,0.171,0.374,0.308,0.616,0.407
		c0.243,0.1,0.527,0.149,0.854,0.149c0.326,0,0.611-0.049,0.854-0.149c0.243-0.099,0.448-0.235,0.616-0.407
		c0.168-0.172,0.299-0.376,0.392-0.611C233.506,247.282,233.566,247.028,233.595,246.757z"/>
	<path fill="#384353" d="M237.921,246.73v2.62c0,0.1-0.038,0.186-0.112,0.258c-0.075,0.073-0.163,0.109-0.266,0.109h-0.519
		c-0.103,0-0.191-0.036-0.266-0.109c-0.075-0.072-0.112-0.158-0.112-0.258v-8.905c0-0.1,0.037-0.186,0.112-0.258
		c0.074-0.072,0.163-0.109,0.266-0.109h0.519c0.103,0,0.19,0.037,0.266,0.109c0.074,0.073,0.112,0.158,0.112,0.258v4.493l2.729-2.05
		c0.057-0.045,0.129-0.095,0.218-0.15c0.088-0.054,0.197-0.082,0.328-0.082h0.7c0.094,0,0.173,0.032,0.238,0.096
		s0.098,0.14,0.098,0.23c0,0.045-0.007,0.089-0.021,0.129c-0.015,0.041-0.059,0.088-0.133,0.142l-3.374,2.552l3.724,3.327
		c0.056,0.054,0.093,0.1,0.112,0.135c0.019,0.036,0.027,0.077,0.027,0.123c0,0.091-0.032,0.167-0.098,0.231
		s-0.145,0.095-0.238,0.095h-0.658c-0.14,0-0.259-0.028-0.356-0.082c-0.098-0.054-0.171-0.104-0.217-0.149L237.921,246.73z"/>
	<path fill="#384353" d="M246.377,242.522c0.504,0,0.952,0.075,1.344,0.224c0.392,0.149,0.728,0.356,1.008,0.618
		s0.502,0.582,0.665,0.957c0.163,0.376,0.264,0.786,0.301,1.229c0.01,0.082,0.015,0.179,0.015,0.292c0,0.114,0,0.231,0,0.354
		c0,0.122,0,0.239,0,0.353c0,0.113-0.005,0.206-0.015,0.277c-0.047,0.453-0.149,0.865-0.308,1.236
		c-0.159,0.371-0.378,0.688-0.658,0.951c-0.28,0.262-0.616,0.468-1.008,0.617c-0.392,0.15-0.84,0.224-1.344,0.224
		s-0.952-0.074-1.344-0.224c-0.393-0.149-0.729-0.355-1.009-0.617c-0.279-0.263-0.502-0.58-0.665-0.951s-0.264-0.783-0.301-1.236
		c-0.009-0.072-0.017-0.165-0.021-0.277c-0.005-0.114-0.008-0.231-0.008-0.353c0-0.123,0.003-0.24,0.008-0.354
		c0.004-0.113,0.012-0.21,0.021-0.292c0.037-0.443,0.138-0.853,0.301-1.229c0.163-0.375,0.386-0.694,0.665-0.957
		c0.28-0.262,0.616-0.469,1.009-0.618C245.425,242.597,245.873,242.522,246.377,242.522z M248.421,246.757
		c0.019-0.154,0.027-0.342,0.027-0.563c0-0.222-0.009-0.414-0.027-0.577c-0.028-0.272-0.089-0.526-0.183-0.761
		c-0.093-0.236-0.224-0.439-0.392-0.61c-0.168-0.172-0.373-0.308-0.616-0.407c-0.242-0.101-0.527-0.15-0.854-0.15
		c-0.327,0-0.611,0.049-0.854,0.15c-0.242,0.099-0.447,0.235-0.616,0.407c-0.168,0.171-0.298,0.375-0.392,0.61
		c-0.094,0.235-0.154,0.489-0.182,0.761c-0.02,0.163-0.028,0.355-0.028,0.577c0,0.221,0.009,0.409,0.028,0.563
		c0.027,0.271,0.088,0.525,0.182,0.761c0.094,0.235,0.224,0.438,0.392,0.611c0.169,0.171,0.374,0.308,0.616,0.407
		c0.243,0.1,0.527,0.149,0.854,0.149c0.326,0,0.611-0.049,0.854-0.149c0.243-0.099,0.448-0.235,0.616-0.407
		c0.168-0.172,0.299-0.376,0.392-0.611C248.332,247.282,248.393,247.028,248.421,246.757z"/>
	<path fill="#384353" d="M253.811,249.717c-0.121,0-0.215-0.036-0.28-0.109c-0.065-0.072-0.116-0.149-0.153-0.23l-2.786-6.299
		c-0.01-0.027-0.015-0.059-0.015-0.095c0-0.09,0.033-0.167,0.099-0.23s0.145-0.096,0.237-0.096h0.519
		c0.14,0,0.245,0.037,0.314,0.109c0.07,0.073,0.119,0.145,0.147,0.217l2.17,4.927l2.17-4.927c0.028-0.072,0.075-0.144,0.141-0.217
		c0.064-0.072,0.153-0.109,0.266-0.109h0.574c0.093,0,0.172,0.032,0.237,0.096s0.099,0.14,0.099,0.23
		c0,0.037-0.005,0.068-0.015,0.095l-2.785,6.299c-0.038,0.082-0.087,0.158-0.147,0.23c-0.061,0.073-0.151,0.109-0.273,0.109H253.811
		z"/>
	<path fill="#384353" d="M260.446,241.219c0,0.099-0.037,0.186-0.112,0.257c-0.074,0.073-0.163,0.109-0.266,0.109h-0.798
		c-0.103,0-0.191-0.036-0.266-0.109c-0.075-0.072-0.112-0.158-0.112-0.257v-0.774c0-0.1,0.037-0.186,0.112-0.258
		c0.074-0.072,0.163-0.109,0.266-0.109h0.798c0.103,0,0.191,0.037,0.266,0.109c0.075,0.073,0.112,0.158,0.112,0.258V241.219z
		 M260.307,249.35c0,0.1-0.038,0.186-0.112,0.258c-0.075,0.073-0.163,0.109-0.266,0.109h-0.519c-0.103,0-0.191-0.036-0.266-0.109
		c-0.075-0.072-0.112-0.158-0.112-0.258v-6.326c0-0.1,0.037-0.185,0.112-0.258c0.074-0.072,0.163-0.109,0.266-0.109h0.519
		c0.103,0,0.19,0.037,0.266,0.109c0.074,0.073,0.112,0.158,0.112,0.258V249.35z"/>
</g>
<g>
	<path fill="#384353" d="M223.291,158.856c0.457,0,0.889,0.057,1.295,0.169c0.405,0.114,0.763,0.288,1.07,0.523
		c0.309,0.235,0.554,0.534,0.735,0.896s0.273,0.792,0.273,1.29c0,0.499-0.092,0.93-0.273,1.296
		c-0.182,0.367-0.427,0.672-0.735,0.917c-0.308,0.244-0.665,0.425-1.07,0.542c-0.406,0.118-0.838,0.177-1.295,0.177h-2.576v3.326
		c0,0.1-0.037,0.186-0.112,0.258c-0.074,0.073-0.163,0.109-0.266,0.109h-0.574c-0.103,0-0.191-0.036-0.266-0.109
		c-0.075-0.072-0.112-0.158-0.112-0.258v-8.77c0-0.099,0.037-0.186,0.112-0.258c0.074-0.072,0.163-0.108,0.266-0.108H223.291z
		 M220.715,163.444h2.506c0.672,0,1.192-0.14,1.561-0.42c0.369-0.28,0.554-0.71,0.554-1.29c0-0.578-0.185-1-0.554-1.262
		c-0.368-0.262-0.889-0.394-1.561-0.394h-2.506V163.444z"/>
	<path fill="#384353" d="M231.887,161.299c0.103,0,0.191,0.037,0.266,0.109c0.075,0.073,0.112,0.158,0.112,0.258v0.435
		c0,0.1-0.037,0.186-0.112,0.257c-0.074,0.073-0.163,0.109-0.266,0.109h-0.812c-1.073,0-1.609,0.521-1.609,1.562v3.964
		c0,0.1-0.038,0.186-0.112,0.258c-0.075,0.073-0.163,0.109-0.266,0.109h-0.519c-0.103,0-0.191-0.036-0.266-0.109
		c-0.075-0.072-0.112-0.158-0.112-0.258v-6.326c0-0.1,0.037-0.185,0.112-0.258c0.074-0.072,0.163-0.109,0.266-0.109h0.519
		c0.103,0,0.19,0.037,0.266,0.109c0.074,0.073,0.112,0.158,0.112,0.258v0.421c0.187-0.272,0.41-0.471,0.672-0.598
		c0.261-0.127,0.602-0.19,1.021-0.19H231.887z"/>
	<path fill="#384353" d="M237.627,166.404c0-0.172-0.05-0.314-0.147-0.428c-0.098-0.112-0.245-0.21-0.44-0.292
		c-0.196-0.082-0.446-0.158-0.749-0.231c-0.304-0.072-0.656-0.149-1.058-0.231c-0.756-0.153-1.285-0.409-1.589-0.767
		c-0.304-0.357-0.455-0.775-0.455-1.256c0-0.271,0.056-0.529,0.168-0.773s0.28-0.461,0.504-0.651
		c0.225-0.19,0.507-0.339,0.848-0.448c0.34-0.109,0.739-0.163,1.196-0.163s0.856,0.05,1.197,0.149c0.341,0.1,0.628,0.227,0.861,0.38
		c0.233,0.154,0.41,0.319,0.531,0.495c0.122,0.177,0.188,0.347,0.196,0.51c0.01,0.099-0.025,0.186-0.104,0.257
		c-0.08,0.073-0.171,0.109-0.273,0.109h-0.462c-0.056,0-0.124-0.011-0.203-0.034c-0.079-0.022-0.151-0.075-0.217-0.156
		c-0.121-0.153-0.301-0.282-0.539-0.386s-0.567-0.156-0.987-0.156c-0.429,0-0.776,0.077-1.043,0.231
		c-0.266,0.153-0.398,0.367-0.398,0.637c0,0.172,0.037,0.311,0.111,0.415c0.075,0.104,0.196,0.194,0.364,0.271
		c0.168,0.078,0.39,0.148,0.665,0.21c0.275,0.063,0.618,0.141,1.029,0.231c0.429,0.091,0.788,0.207,1.078,0.347
		c0.289,0.14,0.522,0.298,0.699,0.475c0.178,0.176,0.304,0.372,0.379,0.583c0.074,0.213,0.111,0.437,0.111,0.672
		c0,0.271-0.067,0.534-0.203,0.787c-0.135,0.253-0.329,0.475-0.581,0.666c-0.252,0.189-0.558,0.344-0.917,0.461
		c-0.359,0.118-0.768,0.176-1.225,0.176s-0.863-0.054-1.218-0.163c-0.355-0.108-0.658-0.241-0.91-0.4
		c-0.252-0.158-0.446-0.33-0.581-0.515c-0.136-0.186-0.208-0.36-0.217-0.522c-0.01-0.1,0.023-0.186,0.098-0.259
		c0.075-0.072,0.168-0.108,0.28-0.108h0.504c0.056,0,0.121,0.007,0.196,0.02c0.074,0.013,0.145,0.066,0.21,0.156
		c0.148,0.199,0.354,0.353,0.615,0.461c0.262,0.109,0.603,0.163,1.022,0.163c0.205,0,0.408-0.022,0.609-0.067
		c0.2-0.045,0.378-0.109,0.531-0.19c0.154-0.081,0.278-0.179,0.371-0.292C237.58,166.663,237.627,166.539,237.627,166.404z"/>
	<path fill="#384353" d="M240.049,166.58c0-0.362,0.074-0.679,0.224-0.951c0.149-0.271,0.354-0.502,0.616-0.692
		c0.261-0.189,0.567-0.344,0.917-0.461c0.35-0.118,0.721-0.208,1.113-0.272l1.974-0.312v-0.176c0-0.461-0.156-0.808-0.469-1.039
		c-0.313-0.23-0.702-0.346-1.169-0.346c-0.411,0-0.722,0.072-0.932,0.217c-0.21,0.145-0.39,0.317-0.539,0.516
		c-0.056,0.073-0.116,0.122-0.182,0.15c-0.065,0.026-0.154,0.041-0.266,0.041h-0.42c-0.104,0-0.194-0.036-0.273-0.109
		c-0.079-0.072-0.114-0.158-0.104-0.258c0.019-0.2,0.1-0.403,0.244-0.611c0.145-0.208,0.341-0.393,0.589-0.556
		c0.247-0.163,0.531-0.296,0.854-0.4s0.665-0.156,1.029-0.156c0.42,0,0.81,0.059,1.169,0.176c0.359,0.118,0.667,0.29,0.924,0.516
		c0.257,0.226,0.457,0.506,0.602,0.842c0.145,0.335,0.218,0.719,0.218,1.153v4.141c0,0.1-0.038,0.186-0.112,0.258
		c-0.075,0.073-0.163,0.109-0.266,0.109h-0.519c-0.103,0-0.191-0.036-0.266-0.109c-0.075-0.072-0.112-0.158-0.112-0.258v-0.557
		c-0.084,0.172-0.215,0.324-0.392,0.455c-0.178,0.131-0.381,0.242-0.609,0.333c-0.229,0.09-0.467,0.158-0.714,0.204
		c-0.247,0.044-0.479,0.067-0.693,0.067c-0.364,0-0.697-0.049-1.001-0.149c-0.303-0.099-0.56-0.233-0.77-0.4
		s-0.374-0.369-0.49-0.604C240.106,167.104,240.049,166.852,240.049,166.58z M242.625,167.326c0.336,0,0.644-0.049,0.924-0.149
		c0.279-0.099,0.52-0.237,0.721-0.414c0.2-0.177,0.354-0.387,0.462-0.632c0.107-0.244,0.161-0.516,0.161-0.814v-0.34l-1.652,0.259
		c-0.588,0.09-1.055,0.235-1.399,0.434c-0.346,0.2-0.519,0.458-0.519,0.774c0,0.1,0.023,0.199,0.07,0.298
		c0.047,0.1,0.121,0.195,0.224,0.285c0.103,0.091,0.236,0.163,0.399,0.217C242.179,167.3,242.382,167.326,242.625,167.326z"/>
</g>
</svg>
