<?xml version="1.0" encoding="utf-8"?>
<!-- Generator: Adobe Illustrator 16.0.0, SVG Export Plug-In . SVG Version: 6.00 Build 0)  -->
<!DOCTYPE svg PUBLIC "-//W3C//DTD SVG 1.1//EN" "http://www.w3.org/Graphics/SVG/1.1/DTD/svg11.dtd" [
	<!ENTITY ns_extend "http://ns.adobe.com/Extensibility/1.0/">
	<!ENTITY ns_ai "http://ns.adobe.com/AdobeIllustrator/10.0/">
	<!ENTITY ns_graphs "http://ns.adobe.com/Graphs/1.0/">
	<!ENTITY ns_vars "http://ns.adobe.com/Variables/1.0/">
	<!ENTITY ns_imrep "http://ns.adobe.com/ImageReplacement/1.0/">
	<!ENTITY ns_sfw "http://ns.adobe.com/SaveForWeb/1.0/">
	<!ENTITY ns_custom "http://ns.adobe.com/GenericCustomNamespace/1.0/">
	<!ENTITY ns_adobe_xpath "http://ns.adobe.com/XPath/1.0/">
]>
<svg version="1.1" id="Layer_1" xmlns:x="&ns_extend;" xmlns:i="&ns_ai;" xmlns:graph="&ns_graphs;"
	 xmlns="http://www.w3.org/2000/svg" xmlns:xlink="http://www.w3.org/1999/xlink" x="0px" y="0px" width="300px" height="461px"
	 viewBox="0 0 300 461" enable-background="new 0 0 300 461" xml:space="preserve">
<metadata>
	<sfw  xmlns="&ns_sfw;">
		<slices></slices>
		<sliceSourceBounds  height="424.21" width="182.507" bottomLeftOrigin="true" y="-510.605" x="58.747"></sliceSourceBounds>
	</sfw>
</metadata>
<g>
	<path fill="#1A1A18" d="M204.527,135.896l-8.676,4.34v-8.677L204.527,135.896z M196.305,136.605h-30.6v-1.417h30.6V136.605z"/>
	<path fill="#1A1A18" d="M204.449,219.332l-8.678,4.34v-8.677L204.449,219.332z M196.227,220.041H162.49v-1.417h33.736V220.041z"/>
	<text transform="matrix(1 0 0 1 207.541 139.939)" fill="#1A1A18" font-family="'ArialMT'" font-size="10.309">Prsa</text>
	<text transform="matrix(1 0 0 1 208.1914 193.8071)" fill="#1A1A18" font-family="'ArialMT'" font-size="10.309">Struk</text>
	<text transform="matrix(1 0 0 1 210.3105 223.3428)" fill="#1A1A18" font-family="'ArialMT'" font-size="10.309">Bokovi</text>
	<path fill-rule="evenodd" clip-rule="evenodd" fill="#191716" d="M58.747,191.619v7.402c1.076,2.722,1.57,25.489,0.918,30.379
		c-0.836,6.261,0.118,4.671,0.229,7.406c0.034,0.838-0.176,1.504-0.149,2.418c0.084,2.871,0.484,11.919,1.468,14.432
		c1.898,4.857,1.715,6.688,6.544,9.403c1.902,1.07,5.335,2.886,7.997,2.65c0.688-1.429,0.563-2.576-0.202-3.927
		c-1.254-2.213-4.238-4.329-4.555-6.327c-0.166-1.05,0.248-3.874,0.556-4.869c1.453,0.866,2.43,7.146,5.141,5.558
		c0.469-0.34,0.542-0.264,0.654-1.153c0.069-0.549,0.025-1.45,0.006-2.023c-0.113-3.479-0.418-7.352-1.182-10.694
		c-0.961-4.207-5.158-6.92-4.874-11.083c1.077-15.771,7.293-22.954,10.423-36.994c1.3-5.835,1.251-8.391,1.01-14.444
		c-0.269-6.709,2.173-13.805,3.733-20.093c0.339-1.365,1.038-5.815,1.395-6.585c0.938,2.472,0.747,5.271,1.022,8.018
		c0.268,2.665,0.719,5.382,0.82,8.094c0.104,2.796-0.356,5.669-0.486,8.515c-0.133,2.927-0.021,5.854-0.098,8.789
		c-0.15,5.815-1.544,10.157-2.41,15.595c-0.85,5.331-1.271,10.737-1.818,16.182c-1.454,14.464-2.447,18.193-2.373,33.585
		c0.053,10.759,0.311,23.596,1.996,34.175c0.263,1.644,0.839,6.665,1.216,7.821c1.108,3.402,1.538,12.889,0.638,16.376
		c-0.341,1.321-0.812,2.099-1.231,3.284c-0.317,0.897-0.545,2.689-0.783,3.713c-4.999,21.469-0.719,42.294,4.386,63.005
		c1.188,4.816,2.359,9.667,3.351,14.593c0.518,2.572,0.895,5.032,1.515,7.477c0.405,1.597-0.222,2.114-0.549,3.58
		c-1.105,4.967,3.763-2.081-3.267,17.622c-0.784,2.199-1.635,4.368-2.547,6.431c-0.889,2.01-2.229,4.626-1.28,7.213
		c1.429,3.9,7.353,5.216,12.55,5.437c6.018,0.255,10.598-1.35,11.897-6.111c0.674-2.469,0.046-5.702-0.309-8.241
		c-0.772-5.541-0.234-11.431-0.888-17.039c-0.157-1.351-0.508-2.751-0.366-4.115c0.168-1.616,0.71-2.023,0.448-4.039
		c-0.321-2.473-1.128-4.714-1.474-7.547c-0.9-7.389-1.493-18.908-0.762-25.934c0.278-2.682,0.857-5.001,1.446-7.534
		c0.583-2.507,0.826-5.127,1.282-7.689c2.225-12.487-2.358-23.606-1.126-33.508c0.596-4.784,3.325-8.612,3.868-14.097
		c0.353-3.555,0.421-13.072,0.557-17.361c0.182-5.756,0.839-10.657,1.999-15.983c1.072-4.928,2.343-9.624,3.464-14.52
		c1.02-4.451,1.709-8.971,2.221-13.517c0.22-1.951,0.911-2.278,2.79-1.683c0.536,0.17,0.294,0.068,0.648,0.287l6.233,29.861
		c3.693,16.451-1.3,25.651,5.634,48.737c1.475,4.909-0.088,11.33-0.52,16.453c-1.521,18.067,4.71,30.474,3.43,50.092
		c-0.459,7.055-0.742,9.222-2.348,15.884c-0.715,2.965,0.146,4.844-0.459,8.081c-1.019,5.445-0.938,11.004-1.747,16.438
		c-0.363,2.448-1.261,5.767-0.211,8.128c3.346,7.525,24.242,4.979,25.353-1.632c0.594-3.527-3.748-10.333-4.963-13.148
		c-1.441-3.347-1.299-7.562-2.377-11.111c-0.6-1.978-0.086-2.093,0.334-3.851c0.695-2.923-1.457-4.621-0.906-7.679l1.797-7.144
		c1.137-4.866,2.434-9.658,3.84-14.369c1.35-4.516,3.488-9.203,4.336-13.873c1.914-10.549,3.346-22.601,1.574-33.228
		c-0.42-2.523-0.877-5.163-1.355-7.647c-0.49-2.553-1.26-4.971-1.686-7.52c-1.746-10.415,0.521-23.398,1.336-34.016
		c0.428-5.567,0.508-11.29,0.951-16.856c0.92-11.532,1.686-23.469,0.523-35.032c-0.273-2.71-0.729-5.295-0.852-8.08
		c-0.131-2.979-0.357-5.584-0.789-8.494c-0.781-5.24-1.916-10.251-2.539-15.642c-0.322-2.786-1.068-4.846-1.516-7.45
		c-1.088-6.318-1.24-20.061-0.697-26.093c0.361-4.001,0.771-7.96,1.496-11.926c0.115-0.633,0.238-1.243,0.377-1.852
		c0.191-0.84,0.236-1.248,0.707-1.803c1.26,1.841,2.105,10.336,2.713,13.233c0.852,4.077,2.594,9.559,2.436,13.752
		c-0.469,12.503-0.141,17.396,3.654,28.255c1.346,3.848,3.17,7.653,4.102,11.836c0.922,4.137,1.973,9.72,2.227,14.03
		c0.225,3.796-3.266,8.574-4.516,11.744c-0.998,2.528-2.137,11.327-1.818,14.339c3.965,2.459,4.402-3.359,6.494-4.727
		c0.289,4.406,0.516,5.703-2.01,7.873c-1.648,1.417-3.812,3.268-2.764,6.938c1.914,1.28,2.727-0.592,4.236-0.979
		c2.232-0.571,2.586-1.024,4.139-2.136c2.42-1.729,4.674-3.572,6.229-6.356c0.199-0.355,1.248-4.326,1.303-4.957
		c0.398-4.532-0.844-14.93,0.385-18.058c1.223-3.112,0.115-1.929-0.082-4.789c-0.365-5.289,0.539-12.66,0.955-17.981
		c0.598-7.681,1.754-15.535,0.736-23.217c-0.475-3.586-1.035-7.09-1.969-10.412c-0.992-3.519-2.186-5.858-2.742-9.83
		c-1.049-7.476-1.301-15.374-2.312-22.858c-0.543-4.012-1.098-7.422-0.967-11.626c0.127-4.077,0.627-7.979,0.455-12.134
		c-0.439-10.556-4.504-19.881-13.355-24.14c-3.201-1.54-6.494-1.47-9.977-2.603c-5.305-1.725-13.093-6.002-16.203-8.958
		c-2.235-2.125-3.06-4.818-3.539-9.033c-0.71-6.252,1.552-5.851,3.812-8.675c2.229-2.786,2.121-8.164,3.179-9.399
		c0.995-1.161,2.199-0.66,2.905-3.418c0.45-1.757,1.354-9.849,0.661-11.291c-0.981-2.046-2.645-0.493-2.942-3.363
		c-0.397-3.838-0.784-7.195-1.939-10.633c-0.763-2.266-3.188-7.352-4.421-8.152c-3.212-2.084-5.709-2.757-9.576-2.984
		c-3.638-0.214-8.327-0.02-11.592,1.039c-3.792,1.229-5.85,2.404-7.795,4.78c-1.84,2.248-3.337,5.041-4.038,8.54
		c-0.726,3.626-0.457,7.791-1.268,11.256c-1.794,1.101-2.699,0.297-2.779,3.809c-0.042,1.809,0.383,4.293,0.761,6.002
		c0.503,2.271,0.914,3.028,2.044,4.483c1.611,2.073,0.665,5.162,3.55,9.697c0.844,1.328,2.154,2.622,2.721,4.018
		c1.377,3.392,0.257,8.019-1.073,10.955c-1.412,3.118-3.967,4.632-6.927,6.334c-4.098,2.355-9.169,4.429-13.835,5.917
		c-4.917,1.568-8.91,1.065-13.694,6.537c-4.396,5.027-6.788,12.008-7.437,19.074c-0.409,4.461,0.152,8.39-0.09,12.71
		c-0.229,4.095-0.825,7.993-1.141,12.093c-0.458,5.959-0.981,19.106-2.282,24.226c-0.888,3.492-2.127,6.67-3.067,10.218
		c-0.469,1.771-0.885,3.636-1.203,5.485C59.283,186.923,58.999,190.916,58.747,191.619"/>
	<path fill="none" stroke="#FFFFFF" stroke-width="1.1773" stroke-miterlimit="22.9256" stroke-dasharray="2.3508,1.1795" d="
		M89.978,189.671c24.212,3.435,47.151,3.635,68.817,0.601"/>
	<path fill="none" stroke="#FFFFFF" stroke-width="1.1773" stroke-miterlimit="22.9256" stroke-dasharray="2.3508,1.1795" d="
		M83.147,218.601c27.786,3.923,54.112,4.151,78.976,0.686"/>
	<path fill="none" stroke="#FFFFFF" stroke-width="1.4173" stroke-miterlimit="22.9256" stroke-dasharray="2.83,1.42" d="
		M86.658,135.031c48.502,0.385,72.754,0.578,72.754,0.578"/>
	<path fill="#1A1A18" d="M204.447,190.172l-8.676,4.34v-8.677L204.447,190.172z M196.225,190.881h-38.256v-1.417h38.256V190.881z"/>
</g>
</svg>
